<?xml version="1.0" encoding="utf-8"?>
<!-- Generator: Adobe Illustrator 24.0.0, SVG Export Plug-In . SVG Version: 6.00 Build 0)  -->
<svg version="1.1" id="Layer_1" xmlns="http://www.w3.org/2000/svg" xmlns:xlink="http://www.w3.org/1999/xlink" x="0px" y="0px"
	 viewBox="0 0 42.5 46.5" style="enable-background:new 0 0 42.5 46.5;" xml:space="preserve">
<style type="text/css">
	.st0{fill:#E9B833;}
</style>
<title>Asset 4</title>
<g id="Layer_2_1_">
	<g id="Layer_1-2">
		<path class="st0" d="M25.7,28.9c1.5,2.1,2.8,4.3,4,6.5c1.4,3-0.1,6.7-3.3,9.2c-2.7,2.3-6.5,2.5-9.5,0.5c-2.8-1.8-4.5-5.7-3.5-8.7
			c0.8-1.8,1.7-3.5,2.9-5c1.2-1.9,2.6-3.7,3.9-5.6c-1.1-0.8-1.6-0.1-2,0.5c-1.4,1.9-2.7,3.8-4.1,5.6c-2.2,2.8-5.9,3.5-9.5,2
			c-3.4-1.5-5.3-4.7-4.5-8.2c0.4-1.9,1.2-3.7,2.3-5.2c1.9-2.7,4.8-3.1,7.9-2.3c2,0.5,4,1,6,1.4c0.7,0.1,1.3-0.2,1.8-0.6
			c2-2.7,4-5.5,5.9-8.3c1.3-2,1-3.3-0.9-4.8c-1.2-1.2-3.1-1.2-4.3,0C17.2,7.3,16.8,9,18,10.9l0.2,0.3c1.9,2.8,1.8,3.2-0.5,5.8
			c-0.6,0.6-1,0.6-1.5-0.1C15.1,15,14,13.2,13,11.4c-1.5-3.1-0.1-7.1,3-9.4c2.7-2,5.7-2.8,8.8-1s4.8,4.5,4.5,8.1
			c-0.1,1.1-0.5,2.2-1.1,3.1c-1.6,2.5-3.4,4.9-5.1,7.3c-0.3,0.4-0.5,0.8-0.7,1.2l0.3,0.5c0.5-0.3,1.2-0.4,1.5-0.9
			c1.3-1.7,2.5-3.5,3.8-5.2c2-3,5.8-4.1,9.2-2.7c3.5,1.1,5.7,4.4,5.4,8.1C42,25.5,37.9,30,32,28.4c-1.7-0.5-3.4-0.8-5.1-1.3
			c-1.2-0.6-2.6-0.1-3.3,1.1c-1.6,2.6-3.6,5.2-5.3,7.8c-1.2,1.9-1,3.3,0.7,4.8c1.4,1.2,3.5,1.2,4.8-0.1c1.4-1.2,1.7-3.3,0.7-4.9
			l-0.2-0.3C22.5,32.5,22.6,31.5,25.7,28.9z M14.7,24.2c-1.9-0.5-3.5-0.9-5.1-1.4c-2.9-1-5.1,1.8-4.8,4.3C5,28.5,6,29.6,7.4,29.9
			c1.1,0.6,2.4,0.3,3.3-0.5C12,27.8,13.2,26.2,14.7,24.2L14.7,24.2z M27.7,22.4c2,0.5,3.7,1,5.4,1.4c1.4,0.4,2.8-0.2,3.7-1.3
			c1.2-1.6,1-3.8-0.5-5.1c-1.2-1.3-3.3-1.4-4.6-0.1c-0.2,0.1-0.3,0.3-0.4,0.5C30.2,19.1,29.1,20.6,27.7,22.4L27.7,22.4z"/>
	</g>
</g>
</svg>
