<?xml version="1.0" encoding="utf-8"?>
<!-- Generator: Adobe Illustrator 24.0.0, SVG Export Plug-In . SVG Version: 6.00 Build 0)  -->
<svg version="1.1" id="Layer_1" xmlns="http://www.w3.org/2000/svg" xmlns:xlink="http://www.w3.org/1999/xlink" x="0px" y="0px"
	 viewBox="0 0 4066 2048" style="enable-background:new 0 0 4066 2048;" xml:space="preserve">
<style type="text/css">
	.st0{fill:#FFFFFF;}
	.st1{fill:#FFFFFF;stroke:#000000;stroke-miterlimit:10;}
	.st2{fill:#121F2E;}
	.st3{fill:#243141;}
	.st4{fill:#CFE8EA;}
	.st5{fill:#47C6A7;}
	.st6{fill:#202473;}
	.st7{fill:#FBEEE6;}
	.st8{fill:#00A4D3;}
	.st9{fill:#761C6C;}
	.st10{fill:#E6E2E8;}
	.st11{fill:#E6C4B3;}
	.st12{fill:#F0876E;}
	.st13{fill:#FAAB3B;}
	.st14{fill:none;stroke:#FFFFFF;stroke-linecap:round;stroke-miterlimit:10;}
	.st15{fill:#150704;}
	.st16{fill:#C53050;}
	.st17{fill:#FAAA39;}
	.st18{fill:#151A51;}
	.st19{fill:#140631;}
	.st20{opacity:0.45;fill:#001E23;enable-background:new    ;}
	.st21{fill:#FFCF00;}
	.st22{fill:#FF8A13;}
	.st23{fill:#EF1F3B;}
	.st24{fill:#0C334C;}
	.st25{fill:#FFA682;}
	.st26{fill:#463662;}
	.st27{fill:#FF9381;}
	.st28{fill:#1C90A1;}
	.st29{fill:#3AB0C7;}
	.st30{fill:#EF4765;}
	.st31{fill:#FFC5BC;}
	.st32{fill:#FF9697;}
	.st33{fill:#57110B;}
	.st34{fill:#6D2D23;}
	.st35{fill:#F28B78;}
	.st36{fill:#EE4A64;}
	.st37{fill:#27434E;}
	.st38{fill:#EC3EA9;}
	.st39{fill:#CB8479;}
	.st40{fill:#FFCAF5;}
	.st41{fill:#D78722;}
	.st42{fill:#00A0DC;}
	.st43{fill:#06324C;}
	.st44{fill:#001F30;}
	.st45{fill:#025580;}
	.st46{fill:#CA3252;}
	.st47{fill:#F6948C;}
	.st48{fill:#004769;}
	.st49{fill:#00A1DD;}
	.st50{fill:#08537D;}
	.st51{fill:#453962;}
	.st52{fill:#CB8326;}
	.st53{fill:#FFB55E;}
	.st54{font-family:'ArialMT';}
	.st55{font-size:38.7551px;}
	.st56{fill:#D3C2BA;}
	.st57{fill:#ECBCA3;}
	.st58{fill:none;stroke:#140631;stroke-linecap:round;stroke-linejoin:round;stroke-miterlimit:10;}
	.st59{fill:#ECC598;}
	.st60{fill:#B58B5F;}
	.st61{fill:none;stroke:#FFFFFF;stroke-linecap:round;stroke-linejoin:round;stroke-miterlimit:10;}
	.st62{fill:none;stroke:#FFFFFF;stroke-width:4;stroke-linecap:round;stroke-linejoin:round;stroke-miterlimit:10;}
	.st63{fill:url(#SVGID_1_);}
	.st64{fill:url(#SVGID_2_);}
	.st65{enable-background:new    ;}
	.st66{fill:#E9B832;stroke:#E9B832;stroke-width:3;stroke-miterlimit:10;}
	.st67{fill:url(#SVGID_3_);}
</style>
<rect y="-2.5" class="st0" width="4066.1" height="2050.5"/>
<path class="st1" d="M3225.2,2009.1"/>
<g>
	<path class="st2" d="M1683,0c-72.8,138.1-145,286.1-140.1,437.9c6.3,196.9,160.4,384,372.8,453.1c75.4,24.5,158.4,35.9,223.4,77.2
		c52.4,33.2,88,83.1,113.7,134.9c58.5,118.2,70.5,249.1,88.2,376.8s44.1,259.2,125.7,366.5c81.8,107.4,211.2,233,403.2,221.6
		l1196-0.6V0H1683L1683,0z"/>
</g>
<g>
	<path class="st3" d="M2709.1,2.1c34.1,56.9,28.3,139.3,9,207.2c-19.2,67.8-50,130.3-61.9,200.9c-21.9,129.5,29.8,274.1,119.9,334.8
		c127.3,85.8,296.7,7.3,416.4,110.5c60.8,52.4,95.7,141.5,128.4,226.8c52.2,136.1,107,275.4,195.1,374.7
		c119.2,134.4,402,176.7,549.8,106.5l0,0V0L2709.1,2.1z"/>
</g>
<g>
	<g>
		<g>
			<g>
				<path class="st4" d="M3507,837.7c0-4.8,0-9.5,0-14.3c0.2-1.7,0.3-3.3,0.6-5.1c2.9-26,12.9-49.2,30.5-68.7
					c18.7-20.8,41.9-33.7,69.4-38.6c4.6-0.8,9.2-1.3,13.8-1.9c4.8,0,9.5,0,14.3,0c0.6,0.2,1.3,0.3,1.9,0.3
					c19.1,1.3,36.7,6.8,52.9,16.7c31.4,19.2,50.8,47,57.6,83.4c0.8,4.6,1.3,9.2,1.9,13.8c0,4.8,0,9.5,0,14.3
					c-0.2,1.7-0.3,3.3-0.6,5.1c-2.9,26-12.9,49.2-30.5,68.7c-18.7,20.8-41.9,33.7-69.4,38.6c-4.6,0.8-9.2,1.3-13.8,1.9
					c-4.8,0-9.5,0-14.3,0c-0.6-0.2-1.3-0.3-1.9-0.3c-19.1-1.3-36.7-6.8-52.9-16.7c-31.4-19.2-50.8-47-57.6-83.4
					C3508.2,846.9,3507.7,842.3,3507,837.7z M3730.9,830.7c0-56.5-45.7-102.4-102.4-102.6c-56.5-0.2-102.4,45.7-102.6,102.4
					c-0.2,56.5,45.9,102.7,102.6,102.7C3685,933.1,3730.9,887.2,3730.9,830.7z"/>
				<path class="st4" d="M3619,803.3c0-9.2,0-18.4,0-27.8c0.2-7.1,6.5-11.6,12.9-9.2c3.8,1.6,6,4.9,6,9.8c0,15.7,0.2,31.3,0,47
					c0,2.9,1,4.4,3,6c10.2,7.5,20.2,15.1,30.2,22.5c3.5,2.5,5.1,6,4.1,10.3c-1.6,6.5-8.9,9-14.4,5.2c-3.5-2.4-6.8-5.1-10.3-7.6
					c-8.7-6.5-17.3-13-26-19.4c-3.7-2.7-5.4-6-5.4-10.6C3619.1,820.7,3619,812,3619,803.3z"/>
			</g>
			<path class="st4" d="M3879.7,1676.3H2527.2c0,0-89.1-343.1,231.3-417.1s51.9-115.6,8.6-238s390.4-534.2,631.6-155
				s214,381.3,314,184.3C3812.5,853.6,3879.7,1676.3,3879.7,1676.3z"/>
			<circle class="st4" cx="2589.4" cy="1075.1" r="27.6"/>
			<path class="st4" d="M2669.9,828.8c0,6.8-5.6,12.2-12.2,12.2c-6.8,0-12.2-5.6-12.2-12.2c0-6.8,5.6-12.2,12.2-12.2
				C2664.5,816.6,2669.9,822.1,2669.9,828.8z"/>
			<circle class="st4" cx="2502.4" cy="879.1" r="13.5"/>
			<path class="st4" d="M2830.2,769.9c0,5.7-4.6,10.3-10.3,10.3s-10.3-4.6-10.3-10.3s4.6-10.3,10.3-10.3
				C2825.6,759.8,2830.2,764.4,2830.2,769.9z"/>
			<circle class="st4" cx="2415.6" cy="1583.4" r="14.3"/>
			<circle class="st4" cx="3781.5" cy="933.8" r="11"/>
			<path class="st4" d="M3413.9,735.6c0,6.4-5.1,11.4-11.4,11.4c-6.4,0-11.4-5.1-11.4-11.4s5.1-11.4,11.4-11.4
				C3408.8,724.2,3413.9,729.3,3413.9,735.6z"/>
			<path class="st4" d="M3483.9,650.4c0,3.8-3,6.8-6.8,6.8s-6.8-3-6.8-6.8s3-6.8,6.8-6.8S3483.9,646.6,3483.9,650.4z"/>
		</g>
		<g>
			<g>
				<path class="st5" d="M3929,1517.8c-48.7,18.6-84.5,70.6-104.9,108.1c41.8-90,130.7-292.1,69.4-254.5
					c-59.1,36.2-79.5,185.9-86.2,257.5c4.8-83.2,8.4-273.5-55.1-293.1c-66.5-20.5,10.2,212.7,40.8,299.7
					c-16.8-40-51.8-102.1-103.5-88.4c-75.3,19.8,115.1,120.3,115.1,120.3C3947.9,1575.3,4008.6,1487.5,3929,1517.8z"/>
				<g>
					<path class="st0" d="M3948.6,1523.7c-0.3-0.3-0.8-0.5-1.1-0.2c-17.5,11.9-37.9,29.4-57.8,47.6c0,0,0,0-0.2,0.2
						c-11.3,10.3-22.2,21-32.2,31.1l9.2-29.4c0.2-0.5-0.2-0.8-0.5-1c-0.5-0.2-0.8,0.2-1,0.5l-10.2,32.2c-27,27-47.3,49.2-47.8,49.7
						c-0.3,0.3-0.3,0.8,0,1.1c0.2,0.2,0.3,0.2,0.5,0.2s0.5-0.2,0.6-0.3c0.2-0.2,5.6-6,14.3-15.2l23-7c0.5-0.2,0.6-0.6,0.5-1
						c-0.2-0.5-0.6-0.6-1-0.5l-20.5,6.2c15.6-16.4,40.2-41.6,65.9-65.4l25.9-2.4c0.5,0,0.8-0.5,0.6-0.8c0-0.5-0.5-0.8-0.8-0.6
						l-23.8,2.2c19.2-17.8,38.9-34.5,55.9-45.9C3948.7,1524.5,3948.7,1524,3948.6,1523.7z"/>
					<path class="st0" d="M3810.6,1643.6C3810.8,1643.6,3810.8,1643.6,3810.6,1643.6c0.5,0,0.8-0.3,1-0.6c0.2-0.5,1.9-10.2,5.1-25.6
						l15.1-19.8c0.3-0.3,0.2-0.8-0.2-1.1c-0.3-0.3-0.8-0.2-1.1,0.2l-13,17.3c6.5-30.3,17.8-79.7,32.2-125.9l32.5-23.7
						c0.3-0.3,0.5-0.8,0.2-1.1s-0.8-0.5-1.1-0.2l-30.8,22.4c14.4-45.6,31.8-87.8,50.2-105.1c0.3-0.3,0.3-0.8,0-1.1s-0.8-0.3-1.1,0
						c-11.7,11-23,31.9-33.5,57.5l-2.1-27.5c0-0.5-0.3-0.8-0.8-0.8s-0.8,0.5-0.8,0.8l2.4,30.6l0,0c-5.9,14.6-11.4,30.8-16.5,47.2
						c-0.2,0.2-0.2,0.3-0.2,0.5c-5.4,17.3-10.3,35.1-14.8,52.1l-5.4-28.4c-0.2-0.5-0.5-0.6-1-0.6c-0.5,0.2-0.6,0.5-0.6,1l6,31.8l0,0
						c-13.8,53.3-22.2,98.6-22.5,99.5C3810,1643.1,3810.3,1643.6,3810.6,1643.6z"/>
					<path class="st0" d="M3756.3,1608.7l-8.6-27.8c-0.2-0.5-0.6-0.6-1-0.5c-0.5,0.2-0.6,0.6-0.5,1l7.9,25.6
						c-9.8-7.8-19.8-15.6-29.1-22.5l0,0c-20.2-15.1-36.4-26.7-36.7-26.8c-0.3-0.3-0.8-0.2-1.1,0.2c-0.3,0.3-0.2,0.8,0.2,1.1
						c0.3,0.3,15.6,11,34.8,25.4h-24.8c-0.5,0-0.8,0.3-0.8,0.8s0.3,0.8,0.8,0.8h26.8c27.3,20.5,61.8,47.8,74,62.9
						c0.2,0.2,0.3,0.3,0.6,0.3c0.2,0,0.3,0,0.5-0.2c0.3-0.3,0.3-0.8,0.2-1.1C3791.5,1637.9,3774.7,1623.3,3756.3,1608.7z"/>
					<path class="st0" d="M3804.7,1578.3c-0.5-0.2-0.8,0.2-1,0.5l-7.5,24.3c-2.9-26.8-7.3-66.2-13-106.5l13.3-39.4
						c0.2-0.5-0.2-0.8-0.5-1c-0.5-0.2-0.8,0.2-1,0.5l-12.4,36.4c-4.3-29.4-9-58.9-14.4-84.1l7.3-37.3c0.2-0.5-0.2-0.8-0.6-1
						s-0.8,0.2-1,0.6l-6.5,33.8c-6-27.5-12.7-49.4-19.8-59.4c-0.3-0.3-0.8-0.5-1.1-0.2s-0.5,0.8-0.2,1.1
						c10.2,14.1,19.5,53.7,27.3,99.2l-31.9-18.3c-0.3-0.2-0.8-0.2-1.1,0.3c-0.2,0.3-0.2,0.8,0.3,1.1l33,18.9
						c5.2,30.6,9.8,63.7,13.5,93.5l-22.2-12.5c-0.3-0.2-0.8-0.2-1.1,0.3c-0.2,0.3-0.2,0.8,0.3,1.1l23.3,13.2
						c6.4,51.1,10.2,92.2,10.2,93.2c0,0.5,0.3,0.6,0.8,0.6l0,0c0.5,0,0.8-0.5,0.6-0.8c-0.2-2.1-1.1-12.9-2.9-29.4l8.6-27.9
						C3805.4,1578.8,3805.2,1578.5,3804.7,1578.3z"/>
				</g>
			</g>
			<path class="st5" d="M2613.1,1604.4c3.5-6.5,32.4-61,17.5-90.8c-2.1-4-4-5.9-6.2-5.9c-2.5,0-8.4,0-12.4,48.9
				c-1.1,14.9-1.7,30-2.1,39.1c-0.3-0.8-0.6-1.7-1-2.5c0-0.3-0.2-0.5-0.3-0.6c-3.2-8.9-6.8-18.3-10.5-27.8c0-0.3-0.2-0.5-0.3-0.8
				c-1.6-4-3.2-8.1-4.9-12.1c2.2-7.5,25.7-88.9,4.1-116.1c-2.2-2.7-4.3-4.1-6.2-4.1c-0.8,0-2.1,0.3-3.3,1.6
				c-8.9,10-2.4,79.2,0.6,107.6c-9-21.3-19.1-42.5-29.5-61.1c0-0.2-0.2-0.3-0.3-0.5c-7.6-13.5-15.6-25.4-23.7-34.6
				c-0.6-0.6-1.6-0.8-2.2-0.2c-0.6,0.6-0.8,1.6-0.2,2.2c6.8,7.9,13.5,17.6,20,28.7c-13.3-8.4-46.5-28.4-58.3-28.4
				c-2.4,0-4,0.8-4.9,2.2c-1.3,2.2-0.5,5.7,2.5,11c11.6,19.8,31.8,24,46.7,24l0,0c8.4,0,15.1-1.3,17.8-1.9
				c13,23,25.4,50.5,35.9,76.8c-15.2-13.3-58.9-50.5-74.1-50.5c-1.9,0-3.5,0.6-4.6,1.7c-1.3,1.3-1.7,3.2-1.7,5.6
				c0.8,26.4,74,47.6,83.4,50.2c3.2,8.3,6.4,16.4,9.2,24c-11.1-5.1-44.9-19.7-66.4-19.7c-8.3,0-14,2.2-16.8,6.7
				c-2.1,3-1.6,5.6-0.8,7c4,7.5,26.4,11.1,66.5,11.1l0,0c9.2,0,16.5-0.2,19.2-0.3c13,35.6,21.1,62.7,21.3,63.3
				c0.2,0.6,0.8,1.1,1.6,1.1c0.2,0,0.3,0,0.5,0c0.8-0.3,1.3-1.1,1.1-2.1C2630.4,1656.9,2623.9,1634.7,2613.1,1604.4z M2615.3,1556.7
				c3.5-44.6,8.6-45.9,9-45.9c0,0,1.3,0,3.3,4.1c11.9,23.8-6.7,66.2-14.4,82.1C2613.4,1588.3,2614,1572.5,2615.3,1556.7z
				 M2590.2,1435.4c0.5-0.5,0.8-0.5,0.8-0.5c0.3,0,1.6,0.3,3.7,2.9c17.1,21.8,3.2,83.5-2.7,105.6
				C2588.3,1509.9,2582.7,1443.9,2590.2,1435.4z M2538.8,1480.9L2538.8,1480.9c-14.1,0-33.2-3.8-44-22.4c-3.2-5.6-2.7-7.3-2.5-7.6
				c0.3-0.5,1.4-0.6,2.1-0.6c11.4,0,47.6,22.2,58.9,29.4C2550,1480.2,2544.8,1480.9,2538.8,1480.9z M2515.3,1515.8
				c0-1.6,0.2-2.7,0.8-3.3c0.5-0.5,1.3-0.8,2.4-0.8c12.4,0,49.7,30,71.8,49.5C2570.5,1555.2,2515.9,1536.6,2515.3,1515.8z
				 M2587,1592L2587,1592c-37.3,0-60.5-3.5-63.7-9.5c-0.3-0.6-0.6-1.7,0.6-3.7c2.2-3.5,7-5.2,14.1-5.2c19.1,0,49.4,12.4,62.4,18.1
				C2596.9,1592,2592.3,1592,2587,1592z"/>
		</g>
		<g>
			<g>
				<path class="st6" d="M3551.5,1606.3h-714.4c-7.5,0-13.5-6-13.5-13.5v-558c0-7.5,6-13.5,13.5-13.5h714.4c7.5,0,13.5,6,13.5,13.5
					v558C3565,1600.2,3559,1606.3,3551.5,1606.3z"/>
				<g>
					<rect x="2854.2" y="1049.3" class="st7" width="680.1" height="520.6"/>
					<g>
						<g>
							<rect x="3156.2" y="1110.3" class="st0" width="364.2" height="329.3"/>
							<rect x="3166.5" y="1127.3" class="st8" width="343.9" height="23"/>
							<g>
								<path class="st9" d="M3505.5,1182.5c0,5.9-4.8,10.8-10.8,10.8s-10.8-4.8-10.8-10.8c0-5.9,4.8-10.8,10.8-10.8
									S3505.5,1176.7,3505.5,1182.5z"/>
								<path class="st9" d="M3505.5,1222.1c0,5.9-4.8,10.8-10.8,10.8s-10.8-4.8-10.8-10.8c0-5.9,4.8-10.8,10.8-10.8
									C3500.7,1211.3,3505.5,1216,3505.5,1222.1z"/>
								<path class="st9" d="M3505.5,1262.1c0,5.9-4.8,10.8-10.8,10.8s-10.8-4.8-10.8-10.8s4.8-10.8,10.8-10.8
									C3500.7,1251.3,3505.5,1256.2,3505.5,1262.1z"/>
								<path class="st9" d="M3505.5,1304.8c0,5.9-4.8,10.8-10.8,10.8s-10.8-4.8-10.8-10.8c0-5.9,4.8-10.8,10.8-10.8
									S3505.5,1298.9,3505.5,1304.8z"/>
							</g>
							<g>
								<rect x="3166.5" y="1170.5" class="st10" width="303.9" height="9.5"/>
								<rect x="3166.5" y="1186" class="st10" width="148.8" height="9.5"/>
								<rect x="3166.5" y="1210" class="st10" width="303.9" height="9.5"/>
								<rect x="3166.5" y="1225.4" class="st10" width="148.8" height="9.5"/>
								<rect x="3166.5" y="1250.2" class="st10" width="303.9" height="9.5"/>
								<rect x="3166.5" y="1265.6" class="st10" width="148.8" height="9.5"/>
								<rect x="3166.5" y="1292.7" class="st10" width="303.9" height="9.5"/>
								<rect x="3166.5" y="1308.3" class="st10" width="148.8" height="9.5"/>
							</g>
						</g>
						<g>
							<g>
								<rect x="2871.5" y="1393.1" class="st11" width="106.2" height="16.8"/>
								<rect x="2871.5" y="1424.5" class="st11" width="106.2" height="16.8"/>
							</g>
							<g>
								<g>
									<path class="st12" d="M3136.2,1305.3c0,41.8,0,83.4,0,125.1c0,0.2-0.2,0.5-0.2,0.6c-0.5,3.5-2.2,6.4-4.9,8.7
										c-2.2,1.9-4.8,2.7-7.5,3.3c-41.8,0-83.4,0-125.1,0c-0.2,0-0.3-0.2-0.5-0.2c-3.7-0.5-6.5-2.2-8.9-5.1
										c-1.7-2.2-2.5-4.8-3.2-7.5c0-41.8,0-83.4,0-125.1c0-0.2,0.2-0.5,0.2-0.6c0.5-3.5,2.2-6.4,4.9-8.7c2.2-1.9,4.8-2.7,7.5-3.3
										c41.8,0,83.4,0,125.1,0c0.2,0,0.3,0.2,0.5,0.2c3.7,0.5,6.5,2.2,8.9,5.1C3134.7,1300,3135.5,1302.6,3136.2,1305.3z
										 M3126.7,1367.8c0-20,0-40.2,0-60.2c0-3.8-1.7-5.6-5.6-5.6c-40.2,0-80.3,0-120.3,0c-3.8,0-5.6,1.7-5.6,5.7
										c0,40,0,80.2,0,120.2c0,4,1.7,5.7,5.6,5.7c40,0,80.2,0,120.2,0c4,0,5.7-1.7,5.7-5.7
										C3126.7,1407.8,3126.7,1387.8,3126.7,1367.8z"/>
									<path class="st12" d="M3070.3,1384.6c2.7-2.7,5.4-5.4,8.1-8.1c0.8-0.8,1.6-1.7,2.5-2.5c2.2-2.2,4.9-2.2,7.1,0
										c0.2,0.2,0.2,0.2,0.3,0.3c7.5,7.5,14.9,14.9,22.2,22.4c0.8,0.8,1.6,1.9,1.9,3c0.6,2.7-1.4,5.2-4.1,5.6c-0.5,0-1,0-1.3,0
										c-30.8,0-61.4,0-92.2,0c-3,0-4.9-1.3-5.4-3.8c-0.3-1.7,0.3-3.2,1.6-4.4c3.3-3.3,6.5-6.5,9.8-9.8
										c7.3-7.3,14.6-14.6,21.9-21.9c2.9-2.9,5.2-2.9,8.3,0c6,6,12.1,12.1,18.1,18.1C3069.5,1383.8,3070,1384.2,3070.3,1384.6z"/>
									<path class="st12" d="M3075.1,1330.2c7.8,0,14.1,6.5,14,14.1c-0.2,7.8-6.5,14.1-14.3,14c-7.8-0.2-14-6.5-14-14.1
										C3060.9,1336.5,3067.4,1330.2,3075.1,1330.2z"/>
								</g>
							</g>
						</g>
						<g>
							<rect x="2871.4" y="1448.9" class="st13" width="476.3" height="108.1"/>
							<circle class="st12" cx="3437.3" cy="1502.9" r="46.5"/>
						</g>
						<g>
							<rect x="2874.9" y="1110.3" class="st11" width="266.1" height="16.8"/>
							<rect x="2874.9" y="1141.7" class="st11" width="266.1" height="16.8"/>
							<rect x="2874.9" y="1174.1" class="st11" width="91" height="16.8"/>
						</g>
						<g>
							<line class="st14" x1="2882.5" y1="1538.8" x2="3334.6" y2="1538.8"/>
							<line class="st14" x1="2882.5" y1="1519.7" x2="3334.6" y2="1519.7"/>
							<line class="st14" x1="2882.5" y1="1502.9" x2="3334.6" y2="1502.9"/>
							<line class="st14" x1="2882.5" y1="1483.9" x2="3334.6" y2="1483.9"/>
							<line class="st14" x1="2882.5" y1="1466.4" x2="3334.6" y2="1466.4"/>
						</g>
					</g>
					<g>
						<rect x="2854.2" y="1049.3" class="st15" width="680.1" height="37.8"/>
						<path class="st16" d="M2882.5,1068.2c0,5.7-4.6,10.5-10.5,10.5c-5.7,0-10.5-4.6-10.5-10.5c0-5.7,4.6-10.5,10.5-10.5
							C2877.9,1057.8,2882.5,1062.5,2882.5,1068.2z"/>
						<path class="st17" d="M2911.1,1068.2c0,5.7-4.6,10.5-10.5,10.5c-5.7,0-10.5-4.6-10.5-10.5c0-5.7,4.6-10.5,10.5-10.5
							S2911.1,1062.5,2911.1,1068.2z"/>
						<path class="st7" d="M2940.6,1068.2c0,5.7-4.6,10.5-10.5,10.5c-5.7,0-10.5-4.6-10.5-10.5c0-5.7,4.6-10.5,10.5-10.5
							C2935.8,1057.8,2940.6,1062.5,2940.6,1068.2z"/>
					</g>
				</g>
				<path class="st6" d="M3338.1,1661h-287.8v-15c0-4.8,4-8.7,8.7-8.7h270.4c4.8,0,8.7,4,8.7,8.7L3338.1,1661L3338.1,1661z"/>
				<polygon class="st18" points="3194.3,1606.3 3115.1,1606.3 3127.3,1637.2 3194.3,1637.2 3261.3,1637.2 3273.5,1606.3 				"/>
				<polygon class="st19" points="3273.5,1606.3 3122.2,1624.4 3115.1,1606.3 				"/>
				<path class="st15" d="M3883.8,1676.3H2523c-1.6,0-2.9-1.3-2.9-2.9v-9.7c0-1.6,1.3-2.9,2.9-2.9h1360.8c1.6,0,2.9,1.3,2.9,2.9v9.7
					C3886.5,1675,3885.2,1676.3,3883.8,1676.3z"/>
			</g>
			<g>
				<path class="st20" d="M3091.7,1064.7c0.3,0.2,0.5,0.3,0.8,0.3l-37.9,13.5c-9.2,3.3-14,13.3-10.8,22.5c3.3,9.2,13.3,14,22.5,10.8
					l53.2-18.9c6.2-2.2,10.5-7.6,11.6-13.7c0.8,0,1.7-0.2,2.4-0.5c2.1,3.7,5.4,6.7,9.5,8.1l53.2,18.9c9.2,3.3,19.4-1.6,22.5-10.8
					c3.3-9.2-1.6-19.4-10.8-22.5l-36.4-12.9c13.3-6.8,44.5-38.4,44.5-38.4l0,0l0,0l0,0h-202.1
					C3037.4,1036.3,3068.4,1053.1,3091.7,1064.7L3091.7,1064.7z"/>
				<path class="st20" d="M2893.9,1276.7l4.4,3.8l1.9-10l-1.7-1.4l9.8-4.6l7.8-21.1l-5.7,3.5l19.1-11.9l36.4-47.8l-58.9,11.7
					l-83.5,52.2v50.2l55.1-34.5l0,0l-40,33l-15.1,2.2v30l24.4-7.6L2893.9,1276.7z M2889.9,1259.9l-1,2.1l7.9,6l-8.9-6.8
					L2889.9,1259.9z"/>
				<path class="st20" d="M3546.1,1027.7v64.1h-20.3v148.4h39.2v-178.1C3565,1047.7,3557.5,1035,3546.1,1027.7z"/>
				<rect x="3170.8" y="1490.9" class="st20" width="258.1" height="115.4"/>
			</g>
			<g>
				<g>
					
						<rect x="2564" y="1284.7" transform="matrix(0.8479 -0.5302 0.5302 0.8479 -273.6736 1658.0157)" class="st21" width="377.1" height="42.5"/>
					
						<rect x="2558.4" y="1286.5" transform="matrix(0.8479 -0.5302 0.5302 0.8479 -269.8581 1653.7067)" class="st22" width="377.1" height="21.3"/>
					
						<rect x="2589.5" y="1377.4" transform="matrix(0.8479 -0.5301 0.5301 0.8479 -345.5183 1592.8873)" class="st23" width="28.1" height="42.5"/>
					
						<rect x="2616" y="1368" transform="matrix(0.8479 -0.5302 0.5302 0.8479 -338.0321 1600.3037)" class="st24" width="7.6" height="42.5"/>
					<polygon class="st25" points="2900.6,1188.1 2959.5,1176.3 2923.1,1224.1 					"/>
					<polygon class="st26" points="2959.5,1176.3 2933.8,1181.4 2943.6,1197.1 					"/>
				</g>
				<polygon class="st27" points="2770.2,1288.3 2766.1,1300.2 2747.5,1284 2757.7,1273.5 				"/>
				<polygon class="st27" points="2752.4,1543.6 2732.1,1580.1 2719.1,1580.1 2730.2,1534.2 				"/>
				<polygon class="st27" points="2645.3,1562.6 2625,1599.1 2611.9,1599.1 2623.1,1553.1 				"/>
				<polygon class="st28" points="2650.4,1566.1 2662.9,1548.2 2656.6,1544.2 2712.6,1360.7 2660.4,1350.3 2654.5,1362.1 
					2617,1529.4 2611.9,1529 2609.9,1556.1 				"/>
				<path class="st19" d="M2704.8,1359.1l-44.3-8.7l-6,11.9l-1.4,6.4c0,0-1.4,8.6,5.1,16.5c6.4,7.8,35.9,36.8,35.9,36.8l17.6-57.6
					L2704.8,1359.1z"/>
				<path class="st29" d="M2790.6,1453.5L2790.6,1453.5L2790.6,1453.5c2.9-9.2,0.5-19.5-7.1-26.4l-87.5-78.7
					c-10.3-9.4-26.2-8.4-35.6,1.9s-8.4,26.2,1.9,35.6l78,70.2l-23.7,68.7c0,0-5.1,1.7-6.2,1.7s3.2,21.6,3.2,21.6l43.3-5.1l11.6-18.7
					h-5.4l26.4-67.8C2789.8,1455.6,2790.2,1454.7,2790.6,1453.5z"/>
				<path class="st19" d="M2732.1,1381.3l0.2-0.2l-36.4-32.7c-10.3-9.4-26.2-8.4-35.6,1.9c-0.3,0.5-0.8,0.8-1.1,1.3l55.1,35.2
					L2732.1,1381.3z"/>
				<polygon class="st30" points="2881,1249.9 2893.7,1259.7 2891.8,1269.7 2887.4,1265.9 2841.7,1313.7 2746.1,1343.5 
					2732.1,1376.5 2732.1,1381.3 2715.6,1384.6 2650.4,1343.7 2652,1336.7 2743.1,1281 2748,1281.6 2772.1,1298.1 2832.1,1289.1 
					2872.2,1256.2 2868.7,1252.4 				"/>
				<polygon class="st16" points="2743.1,1281 2682,1299.4 2669.1,1326.2 				"/>
				<ellipse class="st31" cx="2778.5" cy="1258.2" rx="31.1" ry="31.1"/>
				<path class="st32" d="M2775.5,1260.5c-0.6,8.6-4.9,15.1-9.7,14.8c-4.8-0.3-7.9-7.5-7.3-16c0.6-8.6,4.9-15.1,9.7-14.8
					C2772.8,1244.8,2776.1,1251.9,2775.5,1260.5z"/>
				<path class="st33" d="M2811,1246.7c0,0-1.1-33.8-46.2-20.8c0,0,9.7-11.9-3.8-14.9c0,0,10-16-21.9-13s-48.9,36-40,49.2
					s21.1-11.1,21.1-11.1s3.8,18.9,21.6,4.1h4.6c0,0-8.9,33.2,8.4,40.8c17.3,7.8,15.4-7.6,15.4-7.6s-10-6.8-3.5-17.8
					c6.5-11.1,10-3.2,8.1,2.7c-1.9,5.9-7.3,20.5,7.3-2.4c0,0,7.9,6.5,9.7-2.4c0,0,7.9,5.9,8.7-2.1l0,0c0,0,10.2,13.5,7.8-1.4
					c1.4,4.9,1.6,11.6-1.1,20.8C2807.1,1270.7,2817.2,1265.6,2811,1246.7z"/>
				<path class="st24" d="M2703.1,1588.7h70.3c0,0,2.5-13.3-35.1-19.5c0,0-7.6,12.7-16.8,1.7
					C2721.3,1570.9,2702.1,1568.3,2703.1,1588.7z"/>
				<path class="st24" d="M2592.1,1595.8l67.5,20c0,0,6.2-12.1-28.1-28.7c0,0-11,10-16.7-3.2C2614.6,1583.9,2597,1576,2592.1,1595.8
					z"/>
				<polygon class="st19" points="2716.6,1524.7 2763.1,1524.4 2717.4,1522.3 				"/>
				<polygon class="st19" points="2617,1529.4 2656.6,1544.2 2617.8,1525.6 				"/>
				<polygon class="st19" points="2669.1,1326.2 2743.1,1281 2671.6,1321 				"/>
				<polygon class="st31" points="2882.5,1251 2889.8,1235.6 2891.7,1237.5 2890.6,1244.5 2909.8,1232.5 2901.8,1253.7 2892,1258.3 
									"/>
			</g>
			<g>
				<g>
					<g>
						<rect x="3507" y="1492.6" class="st34" width="6.8" height="168.4"/>
						<rect x="3610.2" y="1492.6" class="st34" width="6.8" height="168.4"/>
					</g>
					<rect x="3493.7" y="1479.3" class="st35" width="135.3" height="14.1"/>
				</g>
				<g>
					<path class="st36" d="M3642.3,1617.9c-9.5,20.6-23.8,8.9-23.8,8.9c-4,3.8-7.1,7.5-9.8,11c-19.8,9.5-24.3,23.2-24.3,23.2h12.1
						l0,0v0.2h29.4l36.8-28.4C3670.3,1618.8,3642.3,1617.9,3642.3,1617.9z M3597.2,1658c0,0.2,0,0.2-0.2,0.3
						C3597.1,1658.3,3597.1,1658.2,3597.2,1658z M3599.1,1652.8c0,0,0,0.2-0.2,0.2C3599.1,1653,3599.1,1652.8,3599.1,1652.8z"/>
					<path class="st36" d="M3497.5,1612.5c0,0-4.3,17.9,18.3,17.6c0,0,11.1,25.7-4.6,24.6l-73-37
						C3438.3,1617.9,3453.4,1596,3497.5,1612.5z"/>
				</g>
				<g>
					<path class="st37" d="M3610.2,1479.3h-110.8l-36-78.4c-1.1-2.5-0.5-5.6,1.7-7.3l0,0c1.1-0.8,2.4-1.3,3.7-1.3h101.8
						L3610.2,1479.3z"/>
					<polygon class="st0" points="3566.9,1397 3470.4,1397 3502.6,1467.4 3598.2,1467.4 					"/>
					<polygon class="st38" points="3478.8,1407.7 3505.5,1463.9 3538.6,1463.9 3513.9,1407.7 					"/>
					<polygon class="st39" points="3470.4,1397 3566.9,1397 3570.1,1404.2 3473.7,1404.2 					"/>
					<path class="st0" d="M3556.7,1399.7c0.3,0.8,0.2,1.6-0.3,1.9s-1.3-0.2-1.6-0.8c-0.3-0.8-0.2-1.6,0.3-1.9
						C3555.6,1398.6,3556.4,1399.1,3556.7,1399.7z"/>
					<path class="st0" d="M3561,1399.7c0.3,0.8,0.2,1.6-0.3,1.9s-1.3-0.2-1.6-0.8c-0.3-0.8-0.2-1.6,0.3-1.9
						C3559.9,1398.6,3560.7,1399.1,3561,1399.7z"/>
					<path class="st0" d="M3565.2,1399.7c0.3,0.8,0.2,1.6-0.3,1.9s-1.3-0.2-1.6-0.8c-0.3-0.8-0.2-1.6,0.3-1.9
						C3564,1398.6,3564.7,1399.1,3565.2,1399.7z"/>
					<polygon class="st40" points="3518.6,1407.7 3520.2,1411.5 3571,1411.5 3568.6,1407.7 					"/>
					<polygon class="st40" points="3521.3,1412.4 3523.1,1416.4 3573.7,1416.4 3571.5,1412.4 					"/>
				</g>
				<polygon class="st41" points="3550.9,1524.4 3602.1,1623.4 3645.3,1598 3594.2,1484.7 3585.2,1477.4 				"/>
				<polygon class="st19" points="3617.5,1536.4 3578,1576.7 3550.9,1524.4 3585.2,1477.4 3594.2,1484.7 				"/>
				<path class="st13" d="M3743.3,1509.6c0,0-5.9,24-51.4,24c-45.4,0-76,0-76,0l-80.2,91.1l-37-28.7l86.5-118.8l81.4-1.4
					C3666.4,1476.1,3740.3,1498.6,3743.3,1509.6z"/>
				<g>
					<polygon class="st19" points="3580.2,1483.6 3629.9,1491.6 3642.8,1476.1 3585.2,1477.4 					"/>
					<path class="st19" d="M3666.4,1476.1l72.6,41.3c3.5-4.3,4.3-7.6,4.3-7.6C3740.3,1498.6,3666.4,1476.1,3666.4,1476.1z"/>
				</g>
				<path class="st42" d="M3547.8,1454.2l-2.7,20.8l84.9,16.8l34.9-50.3l1.6,34.6l78.4,34.3c0,0,18.1,10.8,11.6-18.9
					c-6.5-29.7-43.8-138.4-43.8-138.4l1.4-12.7l-38.9,11.9l-9.5,8.1l-62.6,86.8L3547.8,1454.2z"/>
				<path class="st31" d="M3547.5,1455.9c0,0-31.3,0.8-42.1,17.8l39.7,1.3L3547.5,1455.9z"/>
				<polygon class="st27" points="3696.3,1337.2 3698.7,1345 3674.4,1352.7 3666.9,1359.2 3663.9,1340.2 				"/>
				<circle class="st31" cx="3673.4" cy="1310.2" r="35.4"/>
				<path class="st32" d="M3704.5,1307.2c-2.9,9-10.2,14.9-16.2,13c-6.2-1.9-8.7-10.8-5.9-20c2.9-9,10.2-14.9,16.2-13
					C3704.7,1289.1,3707.4,1298,3704.5,1307.2z"/>
				<path class="st43" d="M3711.7,1261.6c-17.6-29.2-72.2-4.9-75.4,1.1c-13,23.5,7.5,28.3,7.5,28.3c-8.3,11,20.3-4.8,20.3-4.8
					c-3.5,8.3,9.2,10,15.7,10.5l0,0c0,0,0,17.1,4.4,20.3c0,0-3-14.6,2.1-23l0,0c4-3.3,11-7.6,15.6,1.7c6.7,13.3-10,23.8-10,23.8
					c-9.7,21.1,4.6,17.8,4.6,17.8c24.6,2.4,23.5-37.3,23.5-37.3C3740.6,1280.2,3711.7,1261.6,3711.7,1261.6z"/>
				<polygon class="st31" points="3611.5,1617.9 3626.3,1637.2 3645.3,1624.7 3637.1,1602.9 				"/>
				<polygon class="st31" points="3504.5,1600.7 3492.1,1621.8 3510.9,1634.9 3527.8,1618.8 				"/>
				<g>
					<path class="st44" d="M3618.2,1661.5l-4.1-1.3c-0.6-0.2-1-1-0.8-1.6l38.1-120.7c0.2-0.6,1-1,1.6-0.8l4.1,1.3
						c0.6,0.2,1,1,0.8,1.6l-38.1,120.7C3619.4,1661.4,3618.8,1661.7,3618.2,1661.5z"/>
					<path class="st44" d="M3787.9,1661.5l4.1-1.3c0.6-0.2,1-1,0.8-1.6l-38.1-120.7c-0.2-0.6-1-1-1.6-0.8l-4.1,1.3
						c-0.6,0.2-1,1-0.8,1.6l38.1,120.7C3786.6,1661.4,3787.3,1661.7,3787.9,1661.5z"/>
					<path class="st45" d="M3815.5,1386.2c-2.1-1-4.6,0-5.6,2.2l-63.7,145.1h-99.4c-2.4,0-4.1,1.9-4.1,4.1c0,2.4,1.9,4.1,4.1,4.1
						h118.4c2.4,0,4.1-1.9,4.1-4.1c0-2.4-1.9-4.1-4.1-4.1h-9.8l62.1-141.8C3818.7,1389.7,3817.6,1387.2,3815.5,1386.2z"/>
				</g>
			</g>
			<g>
				<path class="st46" d="M3119.5,1077l74.3,26.4c3.3,1.3,7.1-0.6,8.3-4l7.5-21.1c1.3-3.3-0.6-7.1-4-8.3l-74.3-26.4
					c-3.3-1.3-7.1,0.6-8.3,4l-7.5,21.1C3114.4,1072,3116.2,1075.8,3119.5,1077z"/>
				<path class="st47" d="M3118.2,1066.2l31.1,17.1c0,0,12.7,0.2,15.1-12.4c2.4-12.5-3.7-14.3-3.7-14.3l-21.1-15.1L3118.2,1066.2z"
					/>
				<path class="st30" d="M3117.1,1082.8l-74.3,26.4c-3.3,1.3-7.1-0.6-8.3-4l-7.5-21.1c-1.3-3.3,0.6-7.1,4-8.3l74.3-26.4
					c3.3-1.3,7.1,0.6,8.3,4l7.5,21.1C3122.2,1077.9,3120.5,1081.7,3117.1,1082.8z"/>
				<polygon class="st27" points="3121.7,856.6 3108.9,853.1 3096.2,856.6 3093.8,860.6 3108.9,878.8 3124.1,860.6 				"/>
				<path class="st17" d="M3174.6,879.9c0,0-7.8-6.4-24.4-9.2c-16.8-2.9-26-10.2-26-10.2s-7.6,7-15.1,7c-7.6,0-15.1-7-15.1-7
					s-9.2,7.1-26,10.2c-16.8,2.9-24.4,9.2-24.4,9.2c-22.4,21.6-26.4,141.3-26.4,141.3h91.9h91.9
					C3200.8,1021.2,3196.8,901.5,3174.6,879.9z"/>
				<g>
					<path class="st19" d="M3058.1,894.4c0,0-14.4,106.7-11.6,127h5.6L3058.1,894.4z"/>
					<path class="st19" d="M3161.7,894.4c0,0,14.4,106.7,11.6,127h-5.6L3161.7,894.4z"/>
				</g>
				<path class="st48" d="M3131.3,1045.8c0,0-55.9-54.8-90.5-72.1s-54.5-20.2-54.5-20.2s-21.6,14.4-19.8,31.8s124,81.4,143.5,86.8
					C3129.4,1077.6,3136.3,1058.4,3131.3,1045.8z"/>
				<path class="st19" d="M3131.3,1045.8c0,0-43-42.2-77-64.3h-0.2l0.3,48.7l46.5,5.4l-22.2,22.5c14.6,7.3,26.4,12.5,31.3,13.8
					C3129.4,1077.6,3136.3,1058.4,3131.3,1045.8z"/>
				<path class="st49" d="M3201,1030.3h-146.4v-100c0-6.5,5.4-11.9,11.9-11.9H3189c6.5,0,11.9,5.4,11.9,11.9v100H3201z"/>
				<path class="st31" d="M3118.4,1072l-31.1,17.1c0,0-12.7,0.2-15.1-12.4c-2.4-12.5,3.7-14.3,3.7-14.3l21.1-15.1L3118.4,1072z"/>
				<path class="st50" d="M3096.3,1045.8c0,0,55.9-54.8,90.5-72.1s54.5-20.2,54.5-20.2s21.6,14.4,19.8,31.8s-124,81.4-143.5,86.8
					S3091.2,1058.4,3096.3,1045.8z"/>
				<path class="st32" d="M3088.5,824.8c3,6.4,1.6,13.3-3,15.6c-4.8,2.2-11-1.3-14-7.6c-3-6.4-1.6-13.3,3-15.6
					C3079.3,815.2,3085.5,818.5,3088.5,824.8z"/>
				<path class="st32" d="M3129.4,824.8c-3,6.4-1.6,13.3,3,15.6c4.8,2.2,11-1.3,14-7.6s1.6-13.3-3-15.6
					C3138.6,815.2,3132.4,818.5,3129.4,824.8z"/>
				<circle class="st31" cx="3108.9" cy="830.7" r="28.9"/>
				<path class="st51" d="M3131.9,813.3c0,0-17.5,12.4-18.4,6c-1-6.4,0.6-11.1,0.6-11.1s-29.1,20.5-29.4,9.8c0,0-0.5,14.8-4.1,19.2
					l-1.4-11.6c0,0-0.3-8.9-4.8-8.3c0,0-10.3-4-7.3-14.1c0,0-10.3-0.3-4.8-14.3c5.6-14.1,24.6-26.5,47.6-28.9s34.6,13.2,36.2,23.3
					c1.6,10.2,10.8,35.7,0.8,38.6c0,0-1.6-6.4-9.4-4.9c0,0,1.7,20.3-1.9,24.1C3135.9,841.2,3137.1,821.4,3131.9,813.3z"/>
			</g>
			<polygon class="st38" points="2592.1,1661 2911.8,1661 2911.8,1548.2 2854.2,1548.2 2854.2,1588.7 2716.6,1588.7 2716.6,1624.4 
				2592.1,1624.4 			"/>
			<g>
				<rect x="2637.8" y="918" class="st13" width="192.4" height="108.9"/>
				<polygon class="st52" points="2637.8,1027 2729.7,950.4 2830.2,1027 				"/>
				<polygon class="st53" points="2637.8,918 2729.7,974.4 2830.2,918 				"/>
				
					<ellipse transform="matrix(0.229 -0.9734 0.9734 0.229 1289.6163 3451.3899)" class="st30" cx="2823.6" cy="911.6" rx="31.1" ry="31.1"/>
				<g>
					<text transform="matrix(1 0 0 1 2812.3838 922.8562)" class="st0 st54 st55">8</text>
				</g>
			</g>
			<g>
				<path class="st6" d="M2679.4,1201v-28.7H2667c-1-2.9-2.1-5.6-3.3-8.3l8.7-8.7l-20.3-20.3l-8.7,8.7c-2.5-1.4-5.4-2.5-8.3-3.3
					v-12.5h-28.7v12.4c-2.9,1-5.6,2.1-8.3,3.3l-8.7-8.7l-20.3,20.3l8.7,8.7c-1.4,2.5-2.5,5.4-3.3,8.3h-12.4v28.7h12.4
					c1,2.9,2.1,5.6,3.3,8.3l-8.7,8.7l20.3,20.3l8.7-8.7c2.5,1.4,5.4,2.5,8.3,3.3v12.4h28.7v-12.4c2.9-1,5.6-2.1,8.3-3.3l8.7,8.7
					l20.3-20.3l-8.7-8.7c1.4-2.5,2.5-5.4,3.3-8.3L2679.4,1201L2679.4,1201z M2620.5,1223c-20.2,0-36.5-16.4-36.5-36.5
					c0-20.2,16.4-36.5,36.5-36.5s36.5,16.4,36.5,36.5C2657,1206.7,2640.7,1223,2620.5,1223z"/>
				<path class="st49" d="M2703.4,1112.2v-16.8h-7.3c-0.5-1.7-1.3-3.3-2.1-4.8l5.1-5.1l-11.9-11.9l-5.1,5.1
					c-1.6-0.8-3.2-1.4-4.8-2.1v-7.3h-16.8v7.3c-1.7,0.5-3.3,1.3-4.8,2.1l-5.1-5.1l-11.9,11.9l5.1,5.1c-0.8,1.6-1.4,3.2-2.1,4.8h-7.3
					v16.8h7.3c0.5,1.7,1.3,3.3,2.1,4.8l-5.1,5.1l11.9,11.9l5.1-5.1c1.6,0.8,3.2,1.4,4.8,2.1v7.3h16.8v-7.3c1.7-0.5,3.3-1.3,4.8-2.1
					l5.1,5.1l11.9-11.9l-5.1-5.1c0.8-1.6,1.4-3.2,2.1-4.8H2703.4z M2668.9,1125.1c-11.7,0-21.4-9.5-21.4-21.4
					c0-11.7,9.5-21.4,21.4-21.4s21.4,9.5,21.4,21.4C2690.4,1115.5,2680.8,1125.1,2668.9,1125.1z"/>
			</g>
			<g>
				<rect x="3155.7" y="1479.9" class="st8" width="258.1" height="181"/>
				<rect x="3169.2" y="1507" class="st0" width="229.3" height="142.1"/>
				<g>
					<rect x="3195.1" y="1617.9" class="st38" width="15.9" height="24.1"/>
					<rect x="3224.6" y="1547.4" class="st38" width="15.9" height="94.5"/>
					<rect x="3254.9" y="1582.5" class="st38" width="15.9" height="59.5"/>
					<rect x="3283.7" y="1558.2" class="st38" width="15.9" height="83.7"/>
					<rect x="3317.5" y="1547.4" class="st38" width="15.9" height="94.5"/>
					<rect x="3350" y="1522.9" class="st38" width="15.9" height="119.1"/>
				</g>
				<g>
					<circle class="st16" cx="3177.3" cy="1494.2" r="6.8"/>
					<circle class="st17" cx="3195.9" cy="1494.2" r="6.8"/>
					<circle class="st7" cx="3215.1" cy="1494.2" r="6.8"/>
				</g>
			</g>
			<g>
				<polygon class="st0" points="3575.5,865.8 3535.3,903.8 3535.3,1076.8 3691.4,1076.8 3691.4,865.8 				"/>
				<polygon class="st56" points="3535.3,903.8 3574,908.8 3575.5,865.8 				"/>
				<polygon class="st57" points="3575.5,865.8 3535.3,903.8 3579,903.8 				"/>
				<polygon class="st12" points="3679.1,1050.6 3653.7,1076.8 3515,1076.8 3515,1225.2 3712.5,1225.2 3712.5,1076.8 3712.5,1050.6 
									"/>
				<g>
					<line class="st58" x1="3556.6" y1="928.4" x2="3670.1" y2="928.4"/>
					<line class="st58" x1="3556.6" y1="943.4" x2="3670.1" y2="943.4"/>
					<line class="st58" x1="3556.6" y1="958.2" x2="3670.1" y2="958.2"/>
					<line class="st58" x1="3556.6" y1="973.4" x2="3670.1" y2="973.4"/>
					<line class="st58" x1="3556.6" y1="985.7" x2="3670.1" y2="985.7"/>
					<line class="st58" x1="3556.6" y1="1000.8" x2="3670.1" y2="1000.8"/>
					<line class="st58" x1="3556.6" y1="1012.8" x2="3670.1" y2="1012.8"/>
					<line class="st58" x1="3556.6" y1="1028.1" x2="3670.1" y2="1028.1"/>
				</g>
			</g>
			<g>
				<path class="st30" d="M3199.2,813.9v34.5l-16.4,17.9l33.8-17.9h55.4c6.7,0,12.1-5.4,12.1-12.1v-22.4c0-6.7-5.4-12.1-12.1-12.1
					h-60.8C3204.6,801.8,3199.2,807.2,3199.2,813.9z"/>
				<g>
					<path class="st0" d="M3226.4,824.7c0,4.4-3.7,8.3-8.3,8.3c-4.4,0-8.3-3.7-8.3-8.3c0-4.4,3.7-8.3,8.3-8.3
						C3222.7,816.6,3226.4,820.2,3226.4,824.7z"/>
					<path class="st0" d="M3251.1,824.7c0,4.4-3.7,8.3-8.3,8.3c-4.4,0-8.3-3.7-8.3-8.3c0-4.4,3.7-8.3,8.3-8.3
						C3247.5,816.6,3251.1,820.2,3251.1,824.7z"/>
					<path class="st0" d="M3275.6,824.7c0,4.4-3.7,8.3-8.3,8.3c-4.4,0-8.3-3.7-8.3-8.3c0-4.4,3.7-8.3,8.3-8.3
						C3271.9,816.6,3275.6,820.2,3275.6,824.7z"/>
				</g>
			</g>
			<g>
				<path class="st30" d="M2935,770.7c2.4,0,4.8,0,7.1,0c2.1,0.3,4,0.5,6,1c21.9,4.4,38.4,24.1,38.9,46.5c0.2,9.4-2.2,18.1-6.7,26.4
					c-11.1,20.3-22.4,40.8-33.3,61.1c-1.6,3-3.7,5.2-7,6c-1,0-1.9,0-2.7,0c-2.9-0.8-5.1-2.4-6.5-5.1c-11.4-21-22.9-41.9-34.3-62.9
					c-5.4-9.8-7.3-20.2-5.9-31.1c2.5-18.9,16.8-35.2,35.4-40.2C2929,771.7,2932,771.2,2935,770.7z M2938.7,794.8
					c-11,0-19.8,8.9-19.8,19.7c0,11,8.9,19.8,19.8,20c11,0,19.8-8.9,19.8-19.7C2958.5,803.9,2949.6,795,2938.7,794.8z"/>
			</g>
			<g>
				<polygon class="st59" points="3575.5,865.8 3535.3,903.8 3535.3,1076.8 3691.4,1076.8 3691.4,865.8 				"/>
				<polygon class="st60" points="3535.3,903.8 3574,908.8 3575.5,865.8 				"/>
				<polygon class="st57" points="3575.5,865.8 3535.3,903.8 3579,903.8 				"/>
				<polygon class="st12" points="3679.1,1050.6 3653.7,1076.8 3515,1076.8 3515,1225.2 3712.5,1225.2 3712.5,1076.8 3712.5,1050.6 
									"/>
				<g>
					<line class="st61" x1="3556.6" y1="928.4" x2="3670.1" y2="928.4"/>
					<line class="st61" x1="3556.6" y1="943.4" x2="3670.1" y2="943.4"/>
					<line class="st61" x1="3556.6" y1="958.2" x2="3670.1" y2="958.2"/>
					<line class="st61" x1="3556.6" y1="973.4" x2="3670.1" y2="973.4"/>
					<line class="st61" x1="3556.6" y1="985.7" x2="3670.1" y2="985.7"/>
					<line class="st61" x1="3556.6" y1="1000.8" x2="3670.1" y2="1000.8"/>
					<line class="st61" x1="3556.6" y1="1012.8" x2="3670.1" y2="1012.8"/>
					<line class="st61" x1="3556.6" y1="1028.1" x2="3670.1" y2="1028.1"/>
				</g>
				<polyline class="st62" points="3581,1147.6 3604.7,1172.4 3653.3,1120.1 				"/>
			</g>
			<g>
				
					<ellipse transform="matrix(0.7071 -0.7071 0.7071 0.7071 365.8387 2676.4458)" class="st12" cx="3413.7" cy="896.6" rx="85.1" ry="85.1"/>
				<polygon class="st0" points="3375.7,949.8 3375.7,847.7 3477.8,898.8 				"/>
			</g>
		</g>
	</g>
</g>
<linearGradient id="SVGID_1_" gradientUnits="userSpaceOnUse" x1="2605.3" y1="-1538.6" x2="2756.0999" y2="-1538.6" gradientTransform="matrix(1 0 0 1 0 1840)">
	<stop  offset="0" style="stop-color:#243141"/>
	<stop  offset="1" style="stop-color:#121F2E"/>
</linearGradient>
<ellipse class="st63" cx="2680.7" cy="301.4" rx="75.4" ry="70.6"/>
<linearGradient id="SVGID_2_" gradientUnits="userSpaceOnUse" x1="3163.1001" y1="1690.7073" x2="3406.3198" y2="1690.7073" gradientTransform="matrix(6.123234e-17 1 -1 6.123234e-17 4672 -1287)">
	<stop  offset="0" style="stop-color:#243141"/>
	<stop  offset="1" style="stop-color:#121F2E"/>
</linearGradient>
<path class="st64" d="M2981.3,1876.1c-58.3,0-105.6,54.5-105.6,121.6c0,17.9,3.3,34.9,9.5,50.3l192.6-0.9c5.9-15.2,9-31.8,9-49.4
	C3086.8,1930.6,3039.5,1876.1,2981.3,1876.1z"/>
<g>
	<g class="st65">
		<path d="M275.2,1368.7v6.9h-13.8v44.9h-8.5v-44.9H239v-6.9H275.2z"/>
		<path d="M313.4,1380.8c2.5,1.3,4.4,3.4,5.8,6c1.4,2.7,2.1,5.8,2.1,9.5v24.3h-8.4v-23c0-3.6-0.9-6.5-2.8-8.4
			c-1.9-2-4.4-2.9-7.6-2.9s-5.7,1-7.6,2.9c-1.9,2-2.8,4.8-2.8,8.4v23h-8.5v-55.2h8.5v18.8c1.4-1.8,3.3-3.1,5.5-4
			c2.2-1,4.6-1.4,7.3-1.4C308.1,1378.8,311,1379.5,313.4,1380.8z"/>
		<path d="M369.5,1403.2h-31.4c0.3,3.3,1.5,6,3.6,7.9c2.2,2,4.9,3,8.1,3c4.5,0,7.8-2,9.7-5.8h9.2c-1.2,3.8-3.5,6.8-6.8,9.3
			c-3.3,2.4-7.3,3.6-12.1,3.6c-3.9,0-7.5-0.9-10.6-2.7c-3.1-1.8-5.5-4.3-7.3-7.5s-2.7-6.9-2.7-11.2c0-4.3,0.9-7.9,2.6-11.2
			c1.7-3.2,4.1-5.7,7.2-7.5s6.7-2.6,10.7-2.6c3.9,0,7.4,0.9,10.4,2.6s5.4,4.1,7.1,7.1s2.6,6.6,2.6,10.6
			C369.9,1400.6,369.7,1402,369.5,1403.2z M361,1396.4c-0.1-3.1-1.2-5.7-3.4-7.6s-4.9-2.8-8.2-2.8c-2.9,0-5.4,0.9-7.6,2.8
			c-2.1,1.9-3.4,4.4-3.7,7.6H361L361,1396.4z"/>
		<path d="M412,1380.7c2.5-1.2,5.3-1.9,8.4-1.9c3.6,0,6.9,0.9,9.9,2.6c2.9,1.8,5.2,4.2,6.9,7.5c1.7,3.2,2.6,6.8,2.6,11
			c0,4.1-0.9,7.8-2.6,11.1c-1.7,3.3-4,5.8-7,7.6c-2.9,1.8-6.2,2.8-9.8,2.8c-3.2,0-6-0.6-8.4-1.9c-2.4-1.2-4.4-2.8-5.9-4.8v6h-8.5
			v-55.2h8.5v20.3C407.6,1383.6,409.5,1382,412,1380.7z M429.3,1392.6c-1.2-2-2.8-3.6-4.6-4.7c-2-1.1-4-1.6-6.1-1.6s-4.2,0.5-6,1.6
			c-2,1.1-3.5,2.7-4.6,4.8c-1.2,2.1-1.8,4.5-1.8,7.4c0,2.8,0.6,5.3,1.8,7.5s2.8,3.7,4.6,4.8c2,1.1,3.9,1.6,6,1.6
			c2.2,0,4.3-0.5,6.1-1.7c2-1.2,3.5-2.8,4.6-4.9s1.8-4.6,1.8-7.5S430.5,1394.6,429.3,1392.6z"/>
		<path d="M485.6,1403.2h-31.4c0.3,3.3,1.5,6,3.6,7.9c2.2,2,4.9,3,8.1,3c4.5,0,7.8-2,9.7-5.8h9.2c-1.2,3.8-3.5,6.8-6.8,9.3
			c-3.3,2.4-7.3,3.6-12.1,3.6c-3.9,0-7.5-0.9-10.6-2.7c-3.1-1.8-5.5-4.3-7.3-7.5s-2.7-6.9-2.7-11.2c0-4.3,0.9-7.9,2.6-11.2
			c1.7-3.2,4.1-5.7,7.2-7.5s6.7-2.6,10.7-2.6c3.9,0,7.4,0.9,10.4,2.6s5.4,4.1,7.1,7.1s2.6,6.6,2.6,10.6
			C485.8,1400.6,485.7,1402,485.6,1403.2z M476.9,1396.4c-0.1-3.1-1.2-5.7-3.4-7.6c-2.2-1.9-4.9-2.8-8.2-2.8c-2.9,0-5.4,0.9-7.6,2.8
			c-2.1,1.9-3.4,4.4-3.7,7.6H476.9L476.9,1396.4z"/>
		<path d="M500.4,1419.5c-2.6-1.2-4.6-2.8-6-4.8c-1.5-2-2.3-4.3-2.4-6.8h8.8c0.2,1.8,1,3.2,2.5,4.4c1.5,1.2,3.4,1.8,5.7,1.8
			c2.4,0,4.3-0.4,5.6-1.4c1.3-0.9,2-2.1,2-3.6s-0.7-2.7-2.2-3.5c-1.5-0.7-3.8-1.6-7-2.5c-3.1-0.9-5.6-1.7-7.6-2.5s-3.6-2-5.1-3.6
			c-1.4-1.6-2.1-3.8-2.1-6.5c0-2.2,0.6-4.2,2-6c1.3-1.8,3.1-3.3,5.6-4.3c2.4-1.1,5.2-1.6,8.4-1.6c4.7,0,8.4,1.2,11.3,3.6
			c2.8,2.4,4.4,5.6,4.6,9.7H516c-0.2-1.9-0.9-3.3-2.2-4.4s-3.2-1.6-5.4-1.6c-2.2,0-4,0.4-5.2,1.2c-1.2,0.9-1.8,2-1.8,3.4
			c0,1.1,0.4,2,1.2,2.8c0.8,0.7,1.8,1.3,2.9,1.8s2.8,1,5.1,1.6c3,0.8,5.4,1.6,7.4,2.4s3.6,2,5,3.6s2.1,3.7,2.1,6.3
			c0,2.3-0.6,4.4-2,6.3c-1.3,1.9-3.1,3.3-5.5,4.4s-5.2,1.6-8.4,1.6C505.9,1421.3,503,1420.7,500.4,1419.5z"/>
		<path d="M543.9,1386.4v22.7c0,1.5,0.4,2.7,1.1,3.3c0.7,0.7,2,1,3.7,1h5.2v7.1h-6.8c-3.8,0-6.8-0.9-8.8-2.7c-2-1.8-3-4.7-3-8.7
			v-22.7h-4.9v-6.9h4.9v-10.2h8.6v10.2h10v6.9L543.9,1386.4L543.9,1386.4z"/>
		<path d="M595.5,1380.7c2.5-1.3,5.3-2,8.4-2c3.6,0,6.8,0.9,9.8,2.7s5.2,4.3,7,7.5c1.7,3.2,2.6,6.8,2.6,10.9s-0.9,7.8-2.6,11.1
			c-1.7,3.3-4,5.8-7,7.6c-2.9,1.8-6.2,2.8-9.8,2.8c-3.1,0-6-0.6-8.4-1.9c-2.4-1.2-4.4-2.8-6-4.7v25.5H581v-60.7h8.5v6
			C591.1,1383.7,593.1,1382.1,595.5,1380.7z M613,1392.6c-1.2-2-2.8-3.6-4.6-4.7c-2-1.1-4-1.6-6.1-1.6s-4.2,0.5-6,1.6
			c-2,1.1-3.5,2.7-4.6,4.8c-1.2,2.1-1.8,4.5-1.8,7.4c0,2.8,0.6,5.3,1.8,7.5c1.2,2.1,2.8,3.7,4.6,4.8c2,1.1,3.9,1.6,6,1.6
			c2.2,0,4.3-0.5,6.1-1.7c2-1.2,3.5-2.8,4.6-4.9c1.2-2.1,1.8-4.6,1.8-7.5C614.6,1397,614.1,1394.6,613,1392.6z"/>
		<path d="M631.5,1388.9c1.7-3.2,4.1-5.7,7-7.5s6.2-2.7,9.8-2.7c3.2,0,6,0.6,8.4,1.9c2.4,1.2,4.4,2.8,5.8,4.7v-6h8.6v41.1h-8.6v-6.1
			c-1.4,2-3.4,3.6-5.9,4.9s-5.3,2-8.5,2c-3.6,0-6.8-0.9-9.7-2.8c-2.9-1.8-5.2-4.4-7-7.6c-1.7-3.3-2.6-6.9-2.6-11.1
			C628.9,1395.8,629.7,1392.1,631.5,1388.9z M660.8,1392.6c-1.2-2.1-2.7-3.6-4.6-4.8c-1.9-1.1-3.9-1.6-6.1-1.6
			c-2.2,0-4.3,0.5-6.1,1.6c-1.9,1.1-3.4,2.7-4.6,4.7c-1.2,2-1.8,4.5-1.8,7.4c0,2.8,0.6,5.3,1.8,7.5c1.2,2.1,2.8,3.7,4.6,4.9
			c2,1.2,3.9,1.7,6,1.7c2.2,0,4.3-0.5,6.1-1.6c1.9-1.1,3.4-2.7,4.6-4.8c1.2-2.1,1.8-4.6,1.8-7.5
			C662.5,1397.2,662,1394.7,660.8,1392.6z"/>
		<path d="M690.9,1365.4v55.2h-8.5v-55.2H690.9z"/>
		<path d="M701.8,1388.8c1.7-3.2,4.1-5.7,7.1-7.5s6.5-2.6,10.5-2.6c5,0,9.1,1.2,12.3,3.6c3.3,2.4,5.4,5.8,6.6,10.1h-9.2
			c-0.7-2-2-3.6-3.6-4.8c-1.6-1.2-3.7-1.7-6.2-1.7c-3.5,0-6.2,1.2-8.4,3.7c-2,2.5-3.1,5.9-3.1,10.3s1.1,7.9,3.1,10.4
			s4.8,3.7,8.4,3.7c4.9,0,8.2-2.1,9.8-6.5h9.2c-1.2,4.2-3.5,7.5-6.8,10s-7.4,3.7-12.3,3.7c-3.9,0-7.4-0.9-10.5-2.7
			c-3-1.8-5.4-4.3-7.1-7.5c-1.7-3.2-2.6-6.9-2.6-11.2C699.2,1395.8,700,1392,701.8,1388.8z"/>
		<path d="M784.2,1403.2h-31.4c0.3,3.3,1.5,6,3.6,7.9c2.2,2,4.9,3,8.1,3c4.5,0,7.8-2,9.7-5.8h9.2c-1.2,3.8-3.5,6.8-6.8,9.3
			c-3.3,2.4-7.3,3.6-12.1,3.6c-3.9,0-7.5-0.9-10.6-2.7c-3.1-1.8-5.5-4.3-7.3-7.5s-2.7-6.9-2.7-11.2c0-4.3,0.9-7.9,2.6-11.2
			c1.7-3.2,4.1-5.7,7.2-7.5c3.1-1.8,6.7-2.6,10.7-2.6c3.9,0,7.4,0.9,10.4,2.6s5.4,4.1,7.1,7.1c1.7,3,2.6,6.6,2.6,10.6
			C784.4,1400.6,784.3,1402,784.2,1403.2z M775.6,1396.4c-0.1-3.1-1.2-5.7-3.4-7.6s-4.9-2.8-8.2-2.8c-2.9,0-5.4,0.9-7.6,2.8
			c-2.1,1.9-3.4,4.4-3.7,7.6H775.6L775.6,1396.4z"/>
		<path d="M822.2,1386.4v22.7c0,1.5,0.4,2.7,1.1,3.3c0.7,0.7,2,1,3.7,1h5.2v7.1h-6.8c-3.8,0-6.8-0.9-8.8-2.7s-3-4.7-3-8.7v-22.7
			h-4.9v-6.9h4.9v-10.2h8.6v10.2h10v6.9L822.2,1386.4L822.2,1386.4z"/>
		<path d="M869.6,1380.8c2.5,1.3,4.4,3.4,5.8,6c1.4,2.7,2.1,5.8,2.1,9.5v24.3h-8.4v-23c0-3.6-0.9-6.5-2.8-8.4
			c-1.9-2-4.4-2.9-7.6-2.9c-3.2,0-5.7,1-7.6,2.9c-1.9,2-2.8,4.8-2.8,8.4v23h-8.5v-55.2h8.5v18.8c1.4-1.8,3.3-3.1,5.5-4
			c2.2-1,4.6-1.4,7.3-1.4C864.4,1378.8,867.1,1379.5,869.6,1380.8z"/>
		<path d="M888.1,1388.9c1.7-3.2,4.1-5.7,7-7.5s6.2-2.7,9.8-2.7c3.2,0,6,0.6,8.4,1.9s4.4,2.8,5.8,4.7v-6h8.6v41.1h-8.6v-6.1
			c-1.4,2-3.4,3.6-5.9,4.9s-5.3,2-8.5,2c-3.6,0-6.8-0.9-9.7-2.8c-2.9-1.8-5.2-4.4-7-7.6c-1.7-3.3-2.6-6.9-2.6-11.1
			C885.5,1395.8,886.4,1392.1,888.1,1388.9z M917.4,1392.6c-1.2-2.1-2.7-3.6-4.6-4.8c-1.9-1.1-3.9-1.6-6.1-1.6
			c-2.2,0-4.3,0.5-6.1,1.6c-1.9,1.1-3.4,2.7-4.6,4.7c-1.2,2-1.8,4.5-1.8,7.4c0,2.8,0.6,5.3,1.8,7.5c1.2,2.1,2.8,3.7,4.6,4.9
			c2,1.2,3.9,1.7,6,1.7c2.2,0,4.3-0.5,6.1-1.6c1.9-1.1,3.4-2.7,4.6-4.8c1.2-2.1,1.8-4.6,1.8-7.5
			C919.2,1397.2,918.6,1394.7,917.4,1392.6z"/>
		<path d="M948.9,1386.4v22.7c0,1.5,0.4,2.7,1.1,3.3c0.7,0.7,2,1,3.7,1h5.2v7.1h-6.8c-3.8,0-6.8-0.9-8.8-2.7s-3-4.7-3-8.7v-22.7
			h-4.9v-6.9h4.9v-10.2h8.6v10.2h10v6.9L948.9,1386.4L948.9,1386.4z"/>
		<path d="M1000.6,1380.7c2.5-1.2,5.3-1.9,8.4-1.9c3.6,0,6.9,0.9,9.9,2.6c2.9,1.8,5.2,4.2,6.9,7.5c1.7,3.2,2.6,6.8,2.6,11
			c0,4.1-0.9,7.8-2.6,11.1c-1.7,3.3-4,5.8-7,7.6c-2.9,1.8-6.2,2.8-9.8,2.8c-3.2,0-6-0.6-8.4-1.9s-4.4-2.8-5.9-4.8v6h-8.5v-55.2h8.5
			v20.3C996,1383.6,998,1382,1000.6,1380.7z M1017.8,1392.6c-1.2-2-2.8-3.6-4.6-4.7c-2-1.1-4-1.6-6.1-1.6s-4.2,0.5-6,1.6
			c-2,1.1-3.5,2.7-4.6,4.8c-1.2,2.1-1.8,4.5-1.8,7.4c0,2.8,0.6,5.3,1.8,7.5c1.2,2.1,2.8,3.7,4.6,4.8c2,1.1,3.9,1.6,6,1.6
			c2.2,0,4.3-0.5,6.1-1.7c2-1.2,3.5-2.8,4.6-4.9c1.2-2.1,1.8-4.6,1.8-7.5S1019,1394.6,1017.8,1392.6z"/>
		<path d="M1073.9,1379.5v41.1h-8.5v-4.9c-1.3,1.7-3.1,3-5.2,4s-4.4,1.4-6.9,1.4c-3.2,0-6.1-0.7-8.7-2s-4.6-3.3-6-6
			c-1.5-2.7-2.2-5.8-2.2-9.5v-24.2h8.4v22.9c0,3.6,0.9,6.5,2.8,8.4c1.9,2,4.4,2.9,7.6,2.9s5.7-1,7.6-2.9c1.9-2,2.8-4.8,2.8-8.4
			v-22.9L1073.9,1379.5L1073.9,1379.5z"/>
		<path d="M1085.5,1372.5c-1.1-1.1-1.6-2.3-1.6-3.9c0-1.5,0.5-2.8,1.6-3.9s2.3-1.6,3.9-1.6c1.5,0,2.8,0.5,3.8,1.6
			c1.1,1.1,1.6,2.3,1.6,3.9c0,1.5-0.5,2.8-1.6,3.9s-2.3,1.6-3.8,1.6S1086.6,1373.5,1085.5,1372.5z M1093.6,1379.5v41.1h-8.5v-41.1
			H1093.6z"/>
		<path d="M1113.3,1365.4v55.2h-8.5v-55.2H1113.3z"/>
		<path d="M1124.2,1388.9c1.7-3.2,4.1-5.7,7-7.5s6.2-2.7,9.9-2.7c2.7,0,5.3,0.6,7.9,1.8c2.6,1.2,4.7,2.8,6.2,4.6v-19.8h8.6v55.2
			h-8.6v-6.2c-1.4,2-3.3,3.6-5.8,4.9c-2.5,1.2-5.2,2-8.4,2c-3.6,0-6.8-0.9-9.8-2.8c-2.9-1.8-5.3-4.4-7-7.6s-2.6-6.9-2.6-11.1
			C1121.7,1395.8,1122.5,1392.1,1124.2,1388.9z M1153.6,1392.6c-1.2-2.1-2.7-3.6-4.6-4.8c-1.9-1.1-3.9-1.6-6.1-1.6s-4.3,0.5-6.1,1.6
			c-1.9,1.1-3.4,2.7-4.6,4.7s-1.8,4.5-1.8,7.4c0,2.8,0.6,5.3,1.8,7.5s2.8,3.7,4.6,4.9c2,1.2,3.9,1.7,6,1.7c2.2,0,4.3-0.5,6.1-1.6
			c1.9-1.1,3.4-2.7,4.6-4.8c1.2-2.1,1.8-4.6,1.8-7.5C1155.3,1397.2,1154.7,1394.7,1153.6,1392.6z"/>
	</g>
	<g class="st65">
		<path d="M278.6,1469.1l-25.2,60.4h-8.8l8.4-20l-16.2-40.4h9.5l11.5,31.4l12-31.4H278.6z"/>
		<path d="M292.4,1508.1c-3.1-1.8-5.6-4.3-7.4-7.5s-2.7-6.9-2.7-11.2c0-4.2,0.9-7.9,2.8-11.1s4.4-5.7,7.6-7.5s6.8-2.6,10.7-2.6
			s7.5,0.9,10.7,2.6c3.2,1.8,5.7,4.3,7.6,7.5s2.8,6.9,2.8,11.1s-1,7.9-2.8,11.1c-1.9,3.2-4.4,5.8-7.7,7.5c-3.3,1.8-6.8,2.7-10.7,2.7
			C299.1,1510.8,295.5,1509.9,292.4,1508.1z M309.1,1501.8c2-1.1,3.5-2.6,4.6-4.7c1.2-2.1,1.8-4.6,1.8-7.6s-0.5-5.5-1.7-7.6
			c-1.2-2-2.7-3.6-4.5-4.6c-1.9-1.1-3.9-1.6-6.1-1.6s-4.2,0.5-6,1.6c-1.9,1.1-3.4,2.6-4.4,4.6s-1.6,4.6-1.6,7.6
			c0,4.4,1.2,7.8,3.4,10.2s5.2,3.6,8.5,3.6C305.1,1503.4,307.2,1502.9,309.1,1501.8z"/>
		<path d="M369.9,1469.1v41.1h-8.5v-4.9c-1.3,1.7-3.1,3-5.2,4s-4.4,1.4-6.9,1.4c-3.2,0-6.1-0.7-8.7-2s-4.6-3.3-6-6
			c-1.5-2.7-2.2-5.8-2.2-9.5V1469h8.4v22.9c0,3.6,0.9,6.5,2.8,8.4c1.9,2,4.4,2.9,7.6,2.9s5.7-1,7.6-2.9c1.9-2,2.8-4.8,2.8-8.4V1469
			L369.9,1469.1L369.9,1469.1z"/>
		<path d="M394.6,1470.1c2-1.2,4.5-1.8,7.4-1.8v8.8h-2.1c-3.4,0-5.9,0.9-7.6,2.6s-2.6,4.6-2.6,8.8v21.7h-8.5v-41.1h8.5v6
			C390.9,1472.9,392.5,1471.3,394.6,1470.1z"/>
		<path d="M435.4,1509c-2.6-1.2-4.6-2.8-6-4.8c-1.5-2-2.3-4.3-2.4-6.8h8.8c0.2,1.8,1,3.2,2.5,4.4c1.5,1.2,3.4,1.8,5.7,1.8
			c2.4,0,4.3-0.4,5.6-1.4c1.3-0.9,2-2.1,2-3.6s-0.7-2.7-2.2-3.5c-1.5-0.7-3.8-1.6-7-2.5c-3.1-0.9-5.6-1.7-7.6-2.5s-3.6-2-5.1-3.6
			c-1.4-1.6-2.1-3.8-2.1-6.5c0-2.2,0.6-4.2,2-6c1.3-1.8,3.1-3.3,5.6-4.3c2.4-1.1,5.2-1.6,8.4-1.6c4.7,0,8.4,1.2,11.3,3.6
			c2.8,2.4,4.4,5.6,4.6,9.7H451c-0.2-1.9-0.9-3.3-2.2-4.4c-1.3-1.1-3.2-1.6-5.4-1.6s-4,0.4-5.2,1.2c-1.2,0.9-1.8,2-1.8,3.4
			c0,1.1,0.4,2,1.2,2.8c0.8,0.7,1.8,1.3,2.9,1.8c1.2,0.4,2.8,1,5.1,1.6c3,0.8,5.4,1.6,7.4,2.4s3.6,2,5,3.6s2.1,3.7,2.1,6.3
			c0,2.3-0.6,4.4-2,6.3c-1.3,1.9-3.1,3.3-5.5,4.4s-5.2,1.6-8.4,1.6C440.9,1510.8,437.9,1510.2,435.4,1509z"/>
		<path d="M476.3,1508.1c-3.1-1.8-5.6-4.3-7.4-7.5s-2.7-6.9-2.7-11.2c0-4.2,0.9-7.9,2.8-11.1s4.4-5.7,7.6-7.5s6.8-2.6,10.7-2.6
			c3.9,0,7.5,0.9,10.7,2.6c3.2,1.8,5.7,4.3,7.6,7.5s2.8,6.9,2.8,11.1s-1,7.9-2.8,11.1c-1.9,3.2-4.4,5.8-7.7,7.5
			c-3.3,1.8-6.8,2.7-10.7,2.7C482.9,1510.8,479.4,1509.9,476.3,1508.1z M492.9,1501.8c2-1.1,3.5-2.6,4.6-4.7
			c1.2-2.1,1.8-4.6,1.8-7.6s-0.5-5.5-1.7-7.6c-1.2-2-2.7-3.6-4.5-4.6c-1.9-1.1-3.9-1.6-6.1-1.6s-4.2,0.5-6,1.6
			c-1.9,1.1-3.4,2.6-4.4,4.6c-1.1,2-1.6,4.6-1.6,7.6c0,4.4,1.2,7.8,3.4,10.2s5.2,3.6,8.5,3.6C489,1503.4,491.1,1502.9,492.9,1501.8z
			"/>
		<path d="M533.8,1476h-7.6v34.2h-8.6V1476h-4.9v-6.9h4.9v-2.9c0-4.7,1.2-8.2,3.7-10.3c2.5-2.1,6.5-3.3,11.8-3.3v7.1
			c-2.6,0-4.4,0.4-5.4,1.4c-1.1,1-1.6,2.7-1.6,5.1v2.9h7.6L533.8,1476L533.8,1476z"/>
		<path d="M551.3,1476v22.7c0,1.5,0.4,2.7,1.1,3.3c0.7,0.7,2,1,3.7,1h5.2v7.1h-6.8c-3.8,0-6.8-0.9-8.8-2.7c-2-1.8-3-4.7-3-8.7V1476
			h-4.9v-6.9h4.9v-10.2h8.6v10.2h9.9v6.9H551.3L551.3,1476z"/>
		<path d="M624.3,1469.1l-12.8,41.1h-9l-8.3-30.4l-8.3,30.4h-9l-12.8-41.1h8.6l8.6,33l8.7-33h8.9l8.4,32.9l8.5-32.9H624.3z"/>
		<path d="M630.4,1478.4c1.7-3.2,4.1-5.7,7-7.5s6.2-2.7,9.8-2.7c3.2,0,6,0.6,8.4,1.9c2.4,1.2,4.4,2.8,5.8,4.7v-6h8.6v41.1h-8.6v-6.1
			c-1.4,2-3.4,3.6-5.9,4.9s-5.3,2-8.5,2c-3.6,0-6.8-0.9-9.7-2.8c-2.9-1.8-5.2-4.4-7-7.6c-1.7-3.3-2.6-6.9-2.6-11.1
			C627.8,1485.2,628.7,1481.6,630.4,1478.4z M659.7,1482.1c-1.2-2.1-2.7-3.6-4.6-4.8c-1.9-1.1-3.9-1.6-6.1-1.6
			c-2.2,0-4.3,0.5-6.1,1.6c-1.9,1.1-3.4,2.7-4.6,4.7c-1.2,2-1.8,4.5-1.8,7.4c0,2.8,0.6,5.3,1.8,7.5c1.2,2.1,2.8,3.7,4.6,4.9
			c2,1.2,3.9,1.7,6,1.7c2.2,0,4.3-0.5,6.1-1.6c1.9-1.1,3.4-2.7,4.6-4.8c1.2-2.1,1.8-4.6,1.8-7.5
			C661.5,1486.7,660.8,1484.2,659.7,1482.1z"/>
		<path d="M694.7,1470.1c2-1.2,4.5-1.8,7.4-1.8v8.8h-2.2c-3.4,0-5.9,0.9-7.6,2.6c-1.7,1.7-2.6,4.6-2.6,8.8v21.7h-8.5v-41.1h8.5v6
			C691,1472.9,692.6,1471.3,694.7,1470.1z"/>
		<path d="M747.2,1492.8h-31.4c0.3,3.3,1.5,6,3.6,7.9c2.2,2,4.9,3,8.1,3c4.5,0,7.8-2,9.7-5.8h9.2c-1.2,3.8-3.5,6.8-6.8,9.3
			c-3.3,2.4-7.3,3.6-12.1,3.6c-3.9,0-7.5-0.9-10.6-2.7s-5.5-4.3-7.3-7.5s-2.7-6.9-2.7-11.2s0.9-7.9,2.6-11.2
			c1.7-3.2,4.1-5.7,7.2-7.5c3.1-1.8,6.7-2.6,10.7-2.6c3.9,0,7.4,0.9,10.4,2.6s5.4,4.1,7.1,7.1c1.7,3,2.6,6.6,2.6,10.6
			C747.5,1490.1,747.5,1491.5,747.2,1492.8z M738.7,1485.8c-0.1-3.1-1.2-5.7-3.4-7.6s-4.9-2.8-8.2-2.8c-2.9,0-5.4,0.9-7.6,2.8
			s-3.4,4.4-3.7,7.6H738.7L738.7,1485.8z"/>
		<path d="M775,1478.4c1.7-3.2,4.1-5.7,7-7.5s6.2-2.7,9.8-2.7c3.2,0,6,0.6,8.4,1.9c2.4,1.2,4.4,2.8,5.8,4.7v-6h8.6v41.1H806v-6.1
			c-1.4,2-3.4,3.6-5.9,4.9s-5.3,2-8.5,2c-3.6,0-6.8-0.9-9.7-2.8c-2.9-1.8-5.2-4.4-7-7.6c-1.7-3.3-2.6-6.9-2.6-11.1
			C772.4,1485.2,773.3,1481.6,775,1478.4z M804.3,1482.1c-1.2-2.1-2.7-3.6-4.6-4.8c-1.9-1.1-3.9-1.6-6.1-1.6c-2.2,0-4.3,0.5-6.1,1.6
			c-1.9,1.1-3.4,2.7-4.6,4.7c-1.2,2-1.8,4.5-1.8,7.4c0,2.8,0.6,5.3,1.8,7.5c1.2,2.1,2.8,3.7,4.6,4.9c2,1.2,3.9,1.7,6,1.7
			c2.2,0,4.3-0.5,6.1-1.6c1.9-1.1,3.4-2.7,4.6-4.8c1.2-2.1,1.8-4.6,1.8-7.5C806.1,1486.7,805.5,1484.2,804.3,1482.1z"/>
		<path d="M855.3,1470.4c2.6,1.3,4.5,3.4,6,6c1.4,2.7,2.1,5.8,2.1,9.5v24.3H855v-23c0-3.6-0.9-6.5-2.8-8.4c-1.9-2-4.4-2.9-7.6-2.9
			c-3.2,0-5.7,1-7.6,2.9c-1.9,2-2.8,4.8-2.8,8.4v23h-8.5V1469h8.5v4.7c1.4-1.7,3.2-3,5.3-4s4.4-1.4,6.9-1.4
			C849.8,1468.3,852.7,1469.1,855.3,1470.4z"/>
		<path d="M874,1478.4c1.7-3.2,4.1-5.7,7-7.5s6.2-2.7,9.9-2.7c2.7,0,5.3,0.6,7.9,1.8s4.7,2.8,6.2,4.6v-19.7h8.6v55.2h-8.5v-6.2
			c-1.4,2-3.3,3.6-5.8,4.9s-5.2,2-8.4,2c-3.6,0-6.8-0.9-9.8-2.8c-2.9-1.8-5.3-4.4-7-7.6c-1.7-3.3-2.6-6.9-2.6-11.1
			C871.5,1485.2,872.3,1481.6,874,1478.4z M903.3,1482.1c-1.2-2.1-2.7-3.6-4.6-4.8c-1.9-1.1-3.9-1.6-6.1-1.6c-2.2,0-4.3,0.5-6.1,1.6
			c-1.9,1.1-3.4,2.7-4.6,4.7c-1.2,2-1.8,4.5-1.8,7.4c0,2.8,0.6,5.3,1.8,7.5s2.8,3.7,4.6,4.9c2,1.2,3.9,1.7,6,1.7
			c2.2,0,4.3-0.5,6.1-1.6c1.9-1.1,3.4-2.7,4.6-4.8c1.2-2.1,1.8-4.6,1.8-7.5C905.1,1486.7,904.5,1484.2,903.3,1482.1z"/>
		<path d="M999.4,1469.1l-12.8,41.1h-9l-8.3-30.4l-8.3,30.4h-9l-12.8-41.1h8.6l8.6,33l8.7-33h8.9l8.4,32.9l8.5-32.9H999.4z"/>
		<path d="M1043.1,1492.8h-31.4c0.3,3.3,1.5,6,3.6,7.9c2.2,2,4.9,3,8.1,3c4.5,0,7.8-2,9.7-5.8h9.2c-1.2,3.8-3.5,6.8-6.8,9.3
			c-3.3,2.4-7.3,3.6-12.1,3.6c-3.9,0-7.5-0.9-10.6-2.7c-3.1-1.8-5.5-4.3-7.3-7.5s-2.7-6.9-2.7-11.2s0.9-7.9,2.6-11.2
			c1.7-3.2,4.1-5.7,7.2-7.5c3.1-1.8,6.7-2.6,10.7-2.6c3.9,0,7.4,0.9,10.4,2.6s5.4,4.1,7.1,7.1s2.6,6.6,2.6,10.6
			C1043.5,1490.1,1043.4,1491.5,1043.1,1492.8z M1034.6,1485.8c-0.1-3.1-1.2-5.7-3.4-7.6c-2.2-1.9-4.9-2.8-8.2-2.8
			c-2.9,0-5.4,0.9-7.6,2.8s-3.4,4.4-3.7,7.6H1034.6L1034.6,1485.8z"/>
		<path d="M1066.2,1470.2c2.5-1.2,5.3-1.9,8.4-1.9c3.6,0,6.9,0.9,9.9,2.6c2.9,1.8,5.2,4.2,6.9,7.5c1.7,3.2,2.6,6.8,2.6,11
			c0,4.1-0.9,7.8-2.6,11.1s-4,5.8-7,7.6c-2.9,1.8-6.2,2.8-9.8,2.8c-3.2,0-6-0.6-8.4-1.9c-2.4-1.2-4.4-2.8-5.9-4.8v6h-8.5v-55.3h8.5
			v20.3C1061.8,1473.1,1063.7,1471.5,1066.2,1470.2z M1083.5,1482c-1.2-2-2.8-3.6-4.6-4.7c-2-1.1-4-1.6-6.1-1.6s-4.2,0.5-6,1.6
			c-2,1.1-3.5,2.7-4.6,4.8c-1.2,2.1-1.8,4.5-1.8,7.4s0.6,5.3,1.8,7.5c1.2,2.1,2.8,3.7,4.6,4.8c2,1.1,3.9,1.6,6,1.6
			c2.2,0,4.3-0.5,6.1-1.7c2-1.2,3.5-2.8,4.6-4.9c1.2-2.1,1.8-4.6,1.8-7.5C1085.3,1486.6,1084.7,1484.1,1083.5,1482z"/>
		<path d="M1108.6,1509c-2.6-1.2-4.6-2.8-6-4.8c-1.5-2-2.3-4.3-2.4-6.8h8.8c0.2,1.8,1,3.2,2.5,4.4c1.5,1.2,3.4,1.8,5.7,1.8
			c2.4,0,4.3-0.4,5.6-1.4c1.3-0.9,2-2.1,2-3.6s-0.7-2.7-2.2-3.5c-1.5-0.7-3.8-1.6-7-2.5c-3.1-0.9-5.6-1.7-7.6-2.5s-3.6-2-5.1-3.6
			c-1.4-1.6-2.1-3.8-2.1-6.5c0-2.2,0.6-4.2,2-6c1.3-1.8,3.1-3.3,5.6-4.3c2.4-1.1,5.2-1.6,8.4-1.6c4.7,0,8.4,1.2,11.3,3.6
			s4.4,5.6,4.6,9.7h-8.5c-0.2-1.9-0.9-3.3-2.2-4.4c-1.3-1.1-3.2-1.6-5.4-1.6c-2.2,0-4,0.4-5.2,1.2c-1.2,0.9-1.8,2-1.8,3.4
			c0,1.1,0.4,2,1.2,2.8c0.8,0.7,1.8,1.3,2.9,1.8c1.2,0.4,2.8,1,5.1,1.6c3,0.8,5.4,1.6,7.4,2.4s3.6,2,5,3.6s2.1,3.7,2.1,6.3
			c0,2.3-0.6,4.4-2,6.3c-1.3,1.9-3.1,3.3-5.5,4.4s-5.2,1.6-8.4,1.6C1114.1,1510.8,1111.2,1510.2,1108.6,1509z"/>
		<path d="M1142.7,1462c-1.1-1.1-1.6-2.3-1.6-3.9c0-1.5,0.5-2.8,1.6-3.9s2.3-1.6,3.9-1.6c1.5,0,2.8,0.5,3.8,1.6
			c1.1,1.1,1.6,2.3,1.6,3.9c0,1.5-0.5,2.8-1.6,3.9s-2.3,1.6-3.8,1.6C1145,1463.5,1143.7,1463,1142.7,1462z M1150.7,1469.1v41.1h-8.5
			v-41.1H1150.7z"/>
		<path d="M1171.9,1476v22.7c0,1.5,0.4,2.7,1.1,3.3c0.7,0.7,2,1,3.7,1h5.2v7.1h-6.8c-3.8,0-6.8-0.9-8.8-2.7c-2-1.8-3-4.7-3-8.7V1476
			h-4.9v-6.9h4.9v-10.2h8.6v10.2h10v6.9H1171.9L1171.9,1476z"/>
		<path d="M1227,1492.8h-31.4c0.3,3.3,1.5,6,3.6,7.9c2.2,2,4.9,3,8.1,3c4.5,0,7.8-2,9.7-5.8h9.2c-1.2,3.8-3.5,6.8-6.8,9.3
			c-3.3,2.4-7.3,3.6-12.1,3.6c-3.9,0-7.5-0.9-10.6-2.7s-5.5-4.3-7.3-7.5s-2.7-6.9-2.7-11.2s0.9-7.9,2.6-11.2
			c1.7-3.2,4.1-5.7,7.2-7.5s6.7-2.6,10.7-2.6c3.9,0,7.4,0.9,10.4,2.6s5.4,4.1,7.1,7.1s2.6,6.6,2.6,10.6
			C1227.4,1490.1,1227.3,1491.5,1227,1492.8z M1218.5,1485.8c-0.1-3.1-1.2-5.7-3.4-7.6c-2.2-1.9-4.9-2.8-8.2-2.8
			c-2.9,0-5.4,0.9-7.6,2.8s-3.4,4.4-3.7,7.6H1218.5L1218.5,1485.8z"/>
	</g>
</g>
<g>
	<path class="st66" d="M346.2,1065c0,22.5-18,38.5-54.1,38.5h-56v-1h18.2V964.7h-18.2v-1H286c31.4,0,50.9,8.4,50.9,33.6
		c0,19.5-15.6,28.9-38.5,30.9C326.7,1029.9,346.2,1041.5,346.2,1065z M273.5,964.8v63.5h13.6c23.7,0,30.8-14.8,30.8-30.9
		c0-18.6-5-32.6-31.8-32.6H273.5L273.5,964.8z M325,1065c0-18.8-6.8-36-33.8-36h-17.8v73.5h17.8C322.8,1102.6,325,1081.3,325,1065z"
		/>
	<path class="st66" d="M353.2,1012.1v-1h32.6v61.9c0,9.9,0.4,30.1,15.8,30.1c18.6,0,26.7-27.4,26.7-42.7V1012h-15.4v-1h32.6v91.5
		h15.2v1h-32.4v-32.6c-2.6,15.4-11,34.6-30.9,34.6c-15.4,0-28.9-7.8-28.9-35.3V1012L353.2,1012.1L353.2,1012.1z"/>
	<path class="st66" d="M514.4,1102.6v1h-47.7v-1h15.2v-90.5h-15.2v-1h32.4v91.5H514.4z M480.8,981.8c0-5.4,4.4-9.6,9.6-9.6
		c5.4,0,9.8,4.2,9.8,9.6c0,5.4-4.4,9.8-9.8,9.8C485.2,991.5,480.8,987.2,480.8,981.8z"/>
	<path class="st66" d="M568.1,1102.6v1h-47.7v-1h15.4V964.8h-15.4v-1H553v138.8H568.1z"/>
	<path class="st66" d="M678.8,1102.6v1h-32.6v-16.2c-4.4,10.8-15.2,18.2-28.4,18.2c-27.9,0-43.7-22.5-43.7-48.1s15.8-48.1,43.7-48.1
		c13.1,0,24,7.4,28.4,18v-62.5H631v-1h32.4v138.8L678.8,1102.6L678.8,1102.6z M647.2,1076.2v-37.8c0-15.8-12.8-27.7-27.6-27.7
		c-23.7,0-27.2,27.4-27.2,46.7s3.4,46.7,27.2,46.7C634.5,1104.2,647.2,1092.6,647.2,1076.2z"/>
	<path class="st66" d="M732.5,1102.6v1h-47.7v-1H700v-90.5h-15.2v-1h32.4v91.5H732.5z M699,981.8c0-5.4,4.4-9.6,9.6-9.6
		c5.4,0,9.8,4.2,9.8,9.6c0,5.4-4.4,9.8-9.8,9.8C703.4,991.5,699,987.2,699,981.8z"/>
	<path class="st66" d="M845.9,1102.6v1h-47.7v-1h15.2v-60.9c0-9.9-0.4-29.9-15.8-29.9c-18.6,0-26.7,27.2-26.7,42.5v48.4h15.4v1
		h-47.7v-1h15.2v-90.5h-15.2v-1H771v32.6c2.6-15.4,11-34.3,30.9-34.3c15.4,0,28.9,7.6,28.9,35.1v58.1H846L845.9,1102.6L845.9,1102.6
		z"/>
	<path class="st66" d="M941,1114.4c0,23.5-24.4,39-48.6,39c-24,0-41.5-10.6-41.5-24.6c0-12.6,14-19.8,25-21.5
		c-14.1-2.2-20-7.6-20-15.8c0-12.6,14.4-16.8,21.4-18.2c-11.8-5.2-20.4-16-20.4-30.1c0-20.8,18-33.8,37.3-33.8
		c6.6,0,13,1.4,18.6,4.2c2.2-9.2,8.8-17.6,19-17.6c4.8,0,8.4,2.2,8.4,6.4c0,3-2.2,5.4-5.6,5.4c-5.4,0-6.2-4-11.2-4
		c-4.2,0-8.2,3.8-9.6,10.2c10.6,5.6,18,15.8,18,29.2c0,20.5-18,33.6-37.5,33.6c-5.4,0-11-1-15.8-3c-5.8,1-17.8,4.6-17.8,11.6
		s10.4,6.2,37.3,6.2C927.1,1091.4,941,1096.6,941,1114.4z M931.8,1122.8c0-16.3-19.2-14.6-38.3-14.6c-5.6,0-10.6-0.2-14.8-0.8
		c-6.4,1-16.3,5.2-16.3,20c0,15.2,11,25,30.4,25C911.7,1152.4,931.8,1142.1,931.8,1122.8z M874.7,1043.1c0,13.6,3,32.8,19.5,32.8
		c16.8,0,19.8-19.2,19.8-32.8s-3-33-19.8-33C877.7,1010.1,874.7,1029.5,874.7,1043.1z"/>
	<path class="st66" d="M1100,1012.1h-15.2l-35.3,92.9c-11.6,29.4-20,43-36.5,43c-8.6,0-16.2-4.2-16.2-12c0-3.6,2.2-7.2,6.6-7.2
		c11.4,0,2.8,16.6,13.8,16.6c11.8,0,20.4-12.1,31.4-40.3h-1l-38.5-92.9h-14v-1h47.7v1h-15.4l29.8,70.1l26.7-70.1h-16.2v-1h32.4
		L1100,1012.1L1100,1012.1z"/>
	<path class="st66" d="M1191.9,1057.4c0,25.6-18.6,48.1-46.4,48.1c-27.9,0-46.6-22.5-46.6-48.1s18.6-48.1,46.6-48.1
		C1173.3,1009.3,1191.9,1031.9,1191.9,1057.4z M1173.5,1057.4c0-19.4-4.2-47.4-27.9-47.4s-28.2,27.9-28.2,47.4
		c0,19.4,4.4,47.1,28.2,47.1C1169.4,1104.5,1173.5,1076.8,1173.5,1057.4z"/>
	<path class="st66" d="M1196.9,1012.1v-1h32.6v61.9c0,9.9,0.4,30.1,15.8,30.1c18.6,0,26.7-27.4,26.7-42.7V1012h-15.4v-1h32.6v91.5
		h15.2v1H1272v-32.6c-2.6,15.4-11,34.6-30.9,34.6c-15.4,0-28.9-7.8-28.9-35.3V1012L1196.9,1012.1L1196.9,1012.1z"/>
	<path class="st66" d="M1387.5,1020.9c0,4.4-2,8.2-7,8.2c-11.2,0-2.8-16-15.4-16c-13.4,0-22.4,27.7-22.4,46.7v42.7h15.4v1h-47.7v-1
		h15.2V1012h-15.2v-1h31.6v43.9c1.4-19,8.9-45.7,29.8-45.7C1381.4,1009.3,1387.5,1014.3,1387.5,1020.9z"/>
	<path class="st66" d="M385.2,1201.1H370l-35.3,92.9h-2l-26.2-69.9l-26.7,69.9h-2l-34.8-92.9h-12.8v-1h47.7v1h-16.6l26.2,70.1
		l18.3-48.4l-8-21.8h-9.9v-1h42v1h-13.6l25.9,70.1l26.7-70.1h-16.2v-1h32.4v1.1H385.2z"/>
	<path class="st66" d="M468.4,1240.6h-65.9c0,2,0,4,0,5.8c0,19.4,6.2,47.1,29.9,47.1c17,0,28.2-10.2,32.1-20.2l1.2,0.6
		c-4.2,9.9-14.6,20.5-33.3,20.5c-27.9,0-48.4-20-48.4-48.1c0-28.2,19.2-48.1,44.5-48.1C448.9,1198.3,469.2,1212.7,468.4,1240.6z
		 M450.1,1239.6c-0.2-19.8-5.6-40.5-21.4-40.5c-19,0-25,22.2-25.9,40.5H450.1z"/>
	<path class="st66" d="M575.1,1246.5c0,25.6-15.8,48.1-43.5,48.1c-13.6,0-24.4-8.2-28.8-19.4l-15,19.4h-2v-140.8h-15.2v-1H503v64.3
		c4.4-10.8,15.2-18.8,28.6-18.8C559.3,1198.3,575.1,1220.8,575.1,1246.5z M556.8,1246.5c0-19.4-3.4-46.7-27.2-46.7
		c-14.8,0-27.6,12.8-27.6,28.8v35.8c0,16.3,12.8,28.9,27.6,28.9C553.3,1293.2,556.8,1265.8,556.8,1246.5z"/>
	<path class="st66" d="M655.8,1266.6c0,15.8-13.4,27.9-36,27.9c-11,0-22-7.4-28.2-7.4c-3.8,0-5,3.4-5.8,6.4H585v-33.3h0.8
		c3.8,15,14.8,33.3,34,33.3c14.6,0,23-6.8,23-19c0-12.4-14.1-14.8-30.1-21.8c-19.8-8.9-25-16.8-25-29.8c0-14.4,12.1-24.7,30.1-24.7
		c11.6,0,17.8,6.4,23,6.4c3.4,0,4.2-2.4,5.2-4.6h0.8v26.6H646c-3.8-15.2-13.8-27.6-28.2-27.6c-13.8,0-19.2,8.4-19.2,16.3
		c0,8.4,3.4,12.6,22.5,20C649.8,1246.7,655.8,1254.4,655.8,1266.6z"/>
	<path class="st66" d="M710.6,1291.6v1h-47.7v-1H678v-90.5h-15.2v-1h32.4v91.5H710.6z M677,1170.7c0-5.4,4.4-9.6,9.6-9.6
		c5.4,0,9.8,4.2,9.8,9.6s-4.4,9.8-9.8,9.8C681.4,1180.5,677,1176.1,677,1170.7z"/>
	<path class="st66" d="M769.3,1282.8c-2,3-7.2,11.8-18.3,11.8c-14.1,0-23-5.8-23-22v-71.5h-14.4v-1H728l15.2-24.6h2v24.6h23.4v1
		h-23.4v71.5c0,7.4-0.6,19.4,9.6,19.4c6.8,0,11.4-6,13.6-9.8L769.3,1282.8z"/>
	<path class="st66" d="M860.5,1240.6h-65.9c0,2,0,4,0,5.8c0,19.4,6.2,47.1,29.9,47.1c17,0,28.2-10.2,32.1-20.2l1.2,0.6
		c-4.2,9.9-14.6,20.5-33.3,20.5c-27.9,0-48.4-20-48.4-48.1c0-28.2,19.2-48.1,44.5-48.1C840.9,1198.3,861.4,1212.7,860.5,1240.6z
		 M842.2,1239.6c-0.2-19.8-5.6-40.5-21.4-40.5c-19,0-25,22.2-25.9,40.5H842.2z"/>
	<path class="st66" d="M941.4,1266.6c0,15.8-13.4,27.9-36,27.9c-11,0-22-7.4-28.2-7.4c-3.8,0-5,3.4-5.8,6.4h-0.7v-33.3h0.8
		c3.8,15,14.8,33.3,34,33.3c14.6,0,23-6.8,23-19c0-12.4-14.1-14.8-30.1-21.8c-19.8-8.9-25-16.8-25-29.8c0-14.4,12.1-24.7,30.1-24.7
		c11.6,0,17.8,6.4,23,6.4c3.4,0,4.2-2.4,5.2-4.6h0.8v26.6h-0.8c-3.8-15.2-13.8-27.6-28.2-27.6c-13.8,0-19.2,8.4-19.2,16.3
		c0,8.4,3.4,12.6,22.5,20C935.5,1246.7,941.4,1254.4,941.4,1266.6z"/>
</g>
<linearGradient id="SVGID_3_" gradientUnits="userSpaceOnUse" x1="3576.6001" y1="470.8499" x2="4113.2998" y2="470.8499" gradientTransform="matrix(-1 0 0 -1 5496.7002 911.7)">
	<stop  offset="0" style="stop-color:#243141"/>
	<stop  offset="1" style="stop-color:#121F2E"/>
</linearGradient>
<path class="st67" d="M1920.1,440.8c0-148.2-120.1-268.3-268.3-268.3c-15.1,0-29.9,1.3-44.4,3.7c-39.5,88.5-67.6,180.1-64.4,273
	c3.1,93,41.7,183.8,105.3,260c1.2,0,2.4,0,3.5,0C1799.9,709.1,1920.1,589,1920.1,440.8z"/>
</svg>
