<?xml version="1.0" encoding="utf-8"?>
<!-- Generator: Adobe Illustrator 24.0.0, SVG Export Plug-In . SVG Version: 6.00 Build 0)  -->
<svg version="1.1" id="Layer_1" xmlns="http://www.w3.org/2000/svg" xmlns:xlink="http://www.w3.org/1999/xlink" x="0px" y="0px"
	 viewBox="0 0 4066 1994" style="enable-background:new 0 0 4066 1994;" xml:space="preserve">
<style type="text/css">
	.st0{fill:#121F2E;}
	.st1{fill:none;stroke:#243141;stroke-miterlimit:10;}
	.st2{fill:#243141;}
	.st3{fill:url(#SVGID_1_);}
	.st4{fill:#E7F3FE;}
	.st5{fill:#CCE2FF;}
	.st6{opacity:0.5;fill:#9EC8FF;}
	.st7{fill:#FFFFFF;}
	.st8{fill:#303C60;}
	.st9{fill:#4476BD;}
	.st10{fill:#3E6BAB;}
	.st11{fill:#F09959;}
	.st12{fill:#A2DFF2;}
	.st13{fill:#96CFE0;}
	.st14{fill:#E38540;}
	.st15{fill:#F5DC95;}
	.st16{fill:#A8CEFF;}
	.st17{fill:#93BBF0;}
	.st18{fill:#75A1DE;}
	.st19{fill:#2E5B9A;}
	.st20{fill:#6791C9;}
	.st21{fill:#F37168;}
	.st22{fill:#D54A41;}
	.st23{fill:#F2E5DE;}
	.st24{fill:#A86B48;}
	.st25{fill:#7A4E34;}
	.st26{fill:#74B570;}
	.st27{fill:#9CD499;}
	.st28{opacity:0.5;fill:#FFFFFF;}
	.st29{fill:#94BDF2;}
	.st30{fill:#9EC8FF;}
	.st31{fill:#F39892;}
	.st32{clip-path:url(#SVGID_2_);fill:#A2DFF2;}
	.st33{clip-path:url(#SVGID_2_);fill:#9CD499;}
	.st34{clip-path:url(#SVGID_2_);fill:#9EC8FF;}
	.st35{clip-path:url(#SVGID_2_);fill:#F39892;}
	.st36{clip-path:url(#SVGID_2_);fill:#FFFFFF;}
	.st37{clip-path:url(#SVGID_2_);fill:#E7F3FE;}
	.st38{fill:#FFB8B3;}
	.st39{fill:#FAE8B6;}
	.st40{fill:#E9B832;stroke:#E9B832;stroke-width:3;stroke-miterlimit:10;}
	.st41{font-family:'Poppins-Medium';}
	.st42{font-size:87.8542px;}
</style>
<g>
	<path class="st0" d="M1423.2,1994c38.4-187.8,196.7-338.7,373.5-412.8c176.8-74,372-88.4,563.2-100.5
		c85.2-5.4,173.9-11.5,247.5-54.7c110.5-64.8,160.2-195,213.5-311.5c108.7-237.4,269.9-459.4,495.9-590
		c226-130.7,527.9-154.9,749.3-16.5V0h-2577c-86.8,173.6-157.2,314.8-285,460.9S902.5,722.7,709.1,739.6
		c-128.9,11.3-257.8-21.3-387.1-18.5S49,776,0,895.7L0.2,1993L1423.2,1994z"/>
</g>
<path class="st1" d="M6226.5-631.5"/>
<g>
	<path class="st2" d="M2310,1.3c28.5,104.7,63.4,213.7,143,287.6s218.1,96,294.3,18.5c34.7-35.3,51.2-84.6,82.6-122.9
		c53.5-65.4,143.3-90.4,228-91.8s168.4,16.9,252.9,21.1c39.3,2,80.4,0.5,115.1-17.9c34.7-18.4,60.9-57.8,52.4-96.1L2310,1.3z"/>
</g>
<path class="st2" d="M433,1954.9c0-51.3-48.1-92.9-107.5-92.9S218,1903.6,218,1954.9c0,14,3.6,27.2,10,39.1h195
	C429.4,1982.1,433,1968.9,433,1954.9z"/>
<linearGradient id="SVGID_1_" gradientUnits="userSpaceOnUse" x1="1609" y1="915" x2="1839" y2="915">
	<stop  offset="0" style="stop-color:#243141"/>
	<stop  offset="0.4655" style="stop-color:#212E3D"/>
	<stop  offset="0.8821" style="stop-color:#162333"/>
	<stop  offset="1" style="stop-color:#121F2E"/>
</linearGradient>
<circle class="st3" cx="1724" cy="915" r="115"/>
<g>
	<path class="st4" d="M2233.8,843.7c276-102.5,556.5-11.9,746.8,185.4c190.3,197.3,589.5-136.2,801.3,60.8
		c144.5,134.4,78.3,480.1-119.8,629.8c-269.3,203.5-1272.8,209.6-1439.2,139.8c-284.5-119.3-1.8-340.3-134.6-552.1
		C1931.5,1057.5,2111.8,888.9,2233.8,843.7z"/>
	<path class="st5" d="M3787.4,1800.6c-138.2-6.8-608.2,4.7-751.1,9.1c-142.9,4.5-308.9-5.9-395.1-21.1
		c-86.2-15.2-584.4,1.3-561.8,42.2c22.6,40.9,222,18.3,448,34.7c226.1,16.4,734.5-2.1,849.2,0c114.7,2.1,219.9-4.1,367.7-12.3
		C3892.2,1845,3867.5,1804.5,3787.4,1800.6z"/>
	<g>
		<path class="st6" d="M3487.8,900.2c0.5-4.9,0.8-9.8,0.8-14.9c0-2.7-0.1-5.3-0.2-7.9l-24.6-8c-1.5-10.4-4.5-20.2-8.7-29.4l16.3-20
			c-3.8-6.6-8.1-12.9-12.9-18.8l-24.6,8c-7.2-7.3-15.3-13.6-24.3-18.7l1.4-25.8c-6.9-3.1-14-5.7-21.5-7.6l-15.2,20.9
			c-5.9-1-12-1.5-18.2-1.5c-4.2,0-8.4,0.2-12.5,0.7l-14-21.7c-7.5,1.5-14.8,3.7-21.8,6.5l0,25.9c-9.3,4.6-17.8,10.5-25.3,17.4
			l-24.1-9.3c-5.1,5.6-9.8,11.6-13.9,18.1l15.2,20.9c-4.7,9-8.2,18.7-10.3,28.9l-25,6.6c-0.5,4.9-0.8,9.8-0.8,14.9
			c0,2.7,0.1,5.3,0.2,7.9l24.6,8c1.5,10.4,4.5,20.2,8.7,29.4l-16.3,20c3.8,6.6,8.1,12.9,12.9,18.8l24.6-8
			c7.2,7.3,15.3,13.6,24.3,18.7l-1.4,25.8c6.9,3.1,14,5.7,21.5,7.6l15.2-20.9c5.9,1,12,1.5,18.2,1.5c4.2,0,8.4-0.2,12.5-0.7
			l14.1,21.7c7.5-1.5,14.8-3.7,21.8-6.5l0-25.9c9.3-4.6,17.8-10.5,25.3-17.4l24.1,9.3c5.1-5.6,9.8-11.6,13.9-18.1l-15.2-20.9
			c4.7-9,8.2-18.7,10.3-28.9L3487.8,900.2z M3356.1,937.2c-28.7,0-51.9-23.3-51.9-51.9c0-28.7,23.3-51.9,51.9-51.9
			c28.7,0,51.9,23.3,51.9,51.9C3408.1,914,3384.8,937.2,3356.1,937.2z"/>
		<g>
			<path class="st7" d="M3427,945.3c-0.6,0-1.2-0.2-1.7-0.6c-1.1-0.9-1.3-2.6-0.3-3.8c12.9-15.6,20.1-35.3,20.1-55.6
				c0-9.7-1.6-19.3-4.7-28.3c-0.5-1.4,0.3-2.9,1.7-3.4c1.4-0.5,2.9,0.3,3.4,1.7c3.3,9.7,5,19.8,5,30.1c0,21.5-7.6,42.5-21.3,59
				C3428.5,944.9,3427.8,945.3,3427,945.3z"/>
		</g>
		<g>
			<path class="st7" d="M3419.5,822.7c-0.7,0-1.3-0.2-1.8-0.7c-8.7-8.2-18.8-14.4-30-18.5c-1.4-0.5-2.1-2-1.6-3.4s2-2.1,3.4-1.6
				c11.9,4.3,22.6,10.9,31.8,19.6c1.1,1,1.1,2.7,0.1,3.8C3420.9,822.4,3420.2,822.7,3419.5,822.7z"/>
		</g>
		<g>
			<path class="st7" d="M3336,801c-1.2,0-2.3-0.8-2.6-2c-0.4-1.4,0.5-2.9,1.9-3.3c7.4-1.9,15-2.8,22.7-2.8c1.5,0,2.7,1.2,2.7,2.7
				s-1.2,2.7-2.7,2.7c-7.2,0-14.4,0.9-21.4,2.6C3336.4,801,3336.2,801,3336,801z"/>
		</g>
	</g>
	<rect x="2448.2" y="755.9" class="st6" width="827.8" height="497.2"/>
	<rect x="2488.6" y="768" class="st7" width="778.8" height="456.5"/>
	<g>
		<path class="st8" d="M3152.7,1003.9c37.1-35.3,100.5-34.5,99.2,19.3c-1.3,53.8,3.1,58.9,18.4,87.1c53,97.9-63.2,92.2-111.6,95.4
			c-48.4,3.2-44.4-88.1-35.9-138.6C3131.3,1016.4,3141.8,1014.2,3152.7,1003.9z"/>
		<path class="st9" d="M3170,1312.4c-11.9,99.9-33.5,173.8-35.9,221.2c-2.4,47.4-12,233.9-12,233.9s26.5-1.9,28.9-5.9
			s49.8-109.2,47.4-174.2c-2.4-65,47.3-163.9,47.3-163.9l-12-97L3170,1312.4z"/>
		<path class="st10" d="M3181.4,1355.9l-18.6,7.8c-5.1,31.7-10.7,60.2-15.6,85.4c29.6,19.1,44.9,82.9,51.5,121.9
			c3.3-43.6,23.9-96.4,36.7-125.5L3181.4,1355.9z"/>
		<path class="st9" d="M3267.3,1302.3c0,0,40.1,51.2,38.8,109.2c-1.9,88.3-11.5,113.6,5.2,206.2c6.5,36.2-14.5,154.5-14.5,154.5
			s-17.9,1.4-27.6-3.4c0.8-8.7-11.6-150.2-35.7-215.2c-11.7-31.5-28.1-119.7-37-170.3c-8.8-50.6-10.4-61-7.2-61
			S3267.3,1302.3,3267.3,1302.3z"/>
		<path class="st11" d="M3038.8,1160.2c0,0,1.8-26.5-1.1-34.6c-2.9-8.2-27.5-15.3-27.5-15.3s-1.1,37.8,1.4,42.5
			c2.5,4.6,17.1,17.8,17.1,17.8L3038.8,1160.2z"/>
		<path class="st12" d="M3177.3,1140.9c-56.4,60.7-74.8,86.2-79.1,86.2c-13.4-23.6-57.8-73.6-57.8-73.6l-19,12.2
			c0,0,43.8,114.4,71.6,115.6c27.8,1.2,84.4-39.5,85.1-44.1C3178.9,1232.6,3177.3,1140.9,3177.3,1140.9z"/>
		<path class="st13" d="M3118.5,1275.4c27.6-11.2,59.2-34.7,59.7-38.2c0.7-4.7-0.9-96.3-0.9-96.3c-12.3,13.2-23,25-32.3,35.2
			C3134.9,1213.8,3135.5,1254.7,3118.5,1275.4z"/>
		<path class="st12" d="M3234.6,1101c0,0,53.9,27,65.7,74.9c11.8,47.9-23.1,107-27.4,138.6c-4.3,31.6-102.8,37.1-102.8,3.3
			c0-32.4-24.7-101.1-23.3-118.6c3.3-41.1,63.3-91.4,63.3-91.4L3234.6,1101z"/>
		<path class="st11" d="M3218.9,1039l23.2,71.4c0,0-24.7,19.1-67.1,65c1.6-30.6,27.2-63.9,27.2-63.9l-17.5-67.4L3218.9,1039z"/>
		<path class="st14" d="M3229.7,1072.3l-10.8-33.3l-34.2,5.1l17.5,67.4c0,0-1.7,2.7-4.2,7C3214.5,1106.3,3224.6,1091,3229.7,1072.3z
			"/>
		<path class="st11" d="M3206.1,1055.1c-6.2,22.7-30.4,35.2-47.6,30.5c-17.2-4.7-20.9-24.9-14.6-47.6c6.2-22.7,25.2-37.3,42.4-32.6
			C3203.5,1010.1,3212.4,1032.4,3206.1,1055.1z"/>
		<path class="st12" d="M3165.9,1285.8c7.5,47.5-20.3,149.2-20.3,149.2s16.6,3.8,66.4-1c49.8-4.8,71.7-54.5,79.2-55.9
			c7.5-1.4,11.3,46.2,15,50c3.7,3.8,4.3-60.1-5.4-85.3c-17.1-44.5-13.8-63.4-7.4-90.4C3304.8,1204.4,3165.9,1285.8,3165.9,1285.8z"
			/>
		<path class="st9" d="M3123.2,1744c4.5,18.2-4.4,32.7-16.2,43.2c-9.6,8.6-39.3,12.2-37.8,16.5c1.4,4.3,36.4,5.6,48.2,3.9
			c11.8-1.8,15-7.5,29.6-7.5c9.6,0,11.4-7.8,7.1-17.5c-4.3-9.7-5.8-15-1.9-23.7C3156.1,1750.3,3123.2,1744,3123.2,1744z"/>
		<path class="st9" d="M3298,1744c-0.7,18.9-2.9,33,1.7,41.8c17.9,15,32.8,32,27.1,33.2c-27.1,5.6-37.5-10.7-52.8-15.3
			c-18.8-5.7,1.8-29.3-5.6-59.7c-4.1-16.9,28.4-12.8,28.4-12.8L3298,1744z"/>
		<path class="st13" d="M3304.8,1358.3c-1.1-5.9-2.4-11.3-4-15.5c-17.1-44.5-13.8-63.4-7.4-90.4c0.5-2.1,0.7-4,0.6-5.6
			c1.4-4.8,2.8-9.7,4-14.6l-5.8-52.5l-41.9-49.8c-31.4,46-10.2,103.3-14.9,134.9c-4.7,31.6-57.4,71.9-57.4,71.9l1.7,11.2
			c2.3,15.4,16.6,26,32,23.9c21.7-3,50.2-9.1,62.8-20.8C3286.8,1339.6,3297.6,1348.4,3304.8,1358.3z"/>
		<path class="st11" d="M3190.3,1334.8c0,0-23.2,6.5-26,8c-2.8,1.5-4.3,9.1-4.3,9.1s-13.3,11.5-8.2,15.6c5.1,4.1,14.2,14.4,26.2,9.6
			c7.4-3,13.1-30.1,18-30.3C3200.8,1346.6,3190.3,1334.8,3190.3,1334.8z"/>
		<path class="st12" d="M3256.1,1123.8c24.9,0.7,47.4,45.5,55.3,84.4c7.9,38.9,16.1,94.1,16.1,94.1s-41.2,32.5-81.9,42
			c-35.5,8.3-53.7,11.5-53.7,11.5l-7.2-20.3l85-49.9c0,0-31.3-58.9-34.4-103.3C3232.2,1137.9,3237.2,1123.3,3256.1,1123.8z"/>
		
			<rect x="2958.2" y="1107.2" transform="matrix(0.9805 -0.1967 0.1967 0.9805 -163.3348 610.2092)" class="st15" width="63.2" height="40.2"/>
		<path class="st11" d="M3023.9,1157c0.9-16.3-7.2-38.5-11.9-38.5c-4.6,0,1.4,14.6-1.1,24.2C3009.6,1147.9,3023.9,1157,3023.9,1157z
			"/>
		<path class="st8" d="M3148.4,1012.5c1.4,44.6,53.5,41.2,67.8,38.4c14.3-2.8-17.4,94.1,9.8,99.7c20,4.1,15.5-27.1,37.6-25
			c9.8,0.9,19.7,16.1,19.7,16.1s-1.5-9.3-9-16.1c-7.5-6.7-27.1-48.1-32.3-77.8c-5.2-29.6-40.1-48.8-50.5-49.4
			c-10.3-0.6-35.7,11.2-35.7,11.2L3148.4,1012.5z"/>
		<g>
			<path class="st8" d="M3225.5,1160.7c-0.7,0-1.4-0.1-2.1-0.2c-8.7-1.9-12.9-11-13.3-28.8c-0.3-15.2,2.2-34.8,4.9-55.5
				c1.1-8.4,2.2-17,3.1-25.4c0.1-0.7,0.7-1.2,1.4-1.2c0.7,0.1,1.2,0.7,1.2,1.4c-0.9,8.4-2,17.1-3.1,25.5c-5.2,40.1-10,77.9,6.4,81.4
				c0.5,0.1,1,0.2,1.5,0.2c9.4,0,17.9-18.4,22.8-36.2c0.2-0.7,0.9-1.1,1.6-0.9c0.7,0.2,1.1,0.9,0.9,1.6
				C3247.5,1134.4,3238.8,1160.7,3225.5,1160.7z"/>
		</g>
		<g>
			<path class="st8" d="M3222.1,1171.1c-3,0-5.6-1.1-7.7-3.4c-17.8-18.8-0.2-113,0.6-117c0.1-0.7,0.8-1.2,1.5-1
				c0.7,0.1,1.2,0.8,1,1.5c-0.2,1-18.1,96.9-1.2,114.7c2,2.1,4.3,2.9,7.1,2.5c9.2-1.2,14.5-13.7,19.2-24.8
				c4.6-10.7,8.8-20.8,16.5-20.6c0.7,0,1.3,0.6,1.3,1.3c0,0.7-0.6,1.3-1.3,1.3c-0.1,0-0.1,0-0.2,0c-5.7,0-9.6,9.2-13.8,19
				c-5,11.7-10.6,24.9-21.3,26.3C3223.1,1171,3222.6,1171.1,3222.1,1171.1z"/>
		</g>
		<path class="st11" d="M3218.1,1059.5c-3.7,4.7-9.4,6.4-12.9,3.8c-3.4-2.7-3.2-8.6,0.4-13.4c3.7-4.7,9.4-6.4,12.9-3.8
			C3222,1048.8,3221.8,1054.7,3218.1,1059.5z"/>
	</g>
	<g>
		<path class="st8" d="M2813.3,1224.7c12.7,25.4,2.2,54.7-22.8,65.1c-25.2,10.4-52.7,4.5-65.4-20.9c-12.7-25.4-3.3-55.9,21.1-68.1
			S2800.6,1199.2,2813.3,1224.7z"/>
		<g>
			<path class="st8" d="M2744.7,1292.8c-2.8,0-8.3-1-15.4-7.2c-5.8-5.1-9.9-13-11.7-22.1c-2.2-11.5-0.8-24.8,4.3-39.4
				c0.2-0.7,1-1,1.7-0.8c0.7,0.2,1,1,0.8,1.7c-4.9,14.2-6.3,27-4.2,38.1c1.6,8.6,5.5,15.9,10.8,20.7c8.9,7.9,14.9,6.5,15,6.5
				c0.7-0.2,1.4,0.2,1.6,0.9c0.2,0.7-0.2,1.4-0.9,1.6C2746.7,1292.6,2746,1292.8,2744.7,1292.8z"/>
		</g>
		<g>
			<path class="st16" d="M2783.6,1323.6c14.5,3.2,32.8,43.5,41.7,69.2c9,26,24.3,58.2,34.3,68.3c10,10,75.9,33.2,75.9,33.2
				s-162.7,0.3-159.3,0C2779.5,1494.1,2783.6,1323.6,2783.6,1323.6z"/>
			<path class="st17" d="M2870,1481.5c-8.9-1.3-41,2.9-27.4-2.9c13.7-5.7,11.8-13,11.8-13s-19.4,16.2-22.9,2
				c-3-12.2-4.2-55.4-15.6-98.7c-9.5-21.5-21.8-42.9-32.3-45.3c0,0-0.4,15.2-1,36.6c4,47.3,10.8,116.8,12.5,134.3
				c21.6,0,57.6,0,87.8,0l20.1-1C2903.1,1493.5,2878.9,1482.7,2870,1481.5z"/>
			<path class="st16" d="M2730.4,1314.7c0,0-46,25.7-56.8,31.2c-10.7,5.5,30.1,166.1,39.1,173c9.1,6.9,89,1.2,98.1-7.5
				c9.1-8.7-7-35.3,0.9-88.6c7.9-53.3-24-99.3-28.1-99.2c-4.1,0.1-30.8-8.9-30.8-8.9H2730.4z"/>
			<path class="st17" d="M2712.8,1518.9c9.1,6.9,66.3,7,90.6-0.5c2.7-0.9,15.2-5.8,15.5-10.5c-2.9-0.6-14.6,0.8-19.3-0.2
				c-16.5-3.8-25.5-24.2-25.5-24.2s-9.1-3.3-29.3-11.8c-20.3-8.6-11.9-34.6-12.4-46c-0.5-11.5-20-48.9-56.8-77.3l-3.4,1.5
				C2669.5,1375.9,2704.4,1512.5,2712.8,1518.9z"/>
			<g>
				<path class="st18" d="M3029.1,1392.9h-110.9l-50.5,107.5h122.1l45.7-97.3C3037.8,1398.3,3034.4,1392.9,3029.1,1392.9z"/>
				<g>
					<path class="st10" d="M2874.4,1501.9h-66.7c-4.1,0-7.5-3.4-7.5-7.5s3.4-7.5,7.5-7.5h61.9l41.9-90.1c1.7-3.8,6.2-5.4,10-3.6
						c3.8,1.7,5.4,6.2,3.6,10l-43.9,94.5C2879.9,1500.2,2877.3,1501.9,2874.4,1501.9z"/>
				</g>
			</g>
			<path class="st11" d="M2758.7,1478.9c28.9,5.4,36.1,12.1,51.8,14.6c17.9,2.9,15.8,6.8,2.5,6.8c-13.3,0-46.7,0.5-58.1-2
				C2743.4,1495.8,2758.7,1478.9,2758.7,1478.9z"/>
			<path class="st16" d="M2670,1348.9c-22.2,70.9-53.6,151.4-48.6,151.4s132.4,5.1,137.4,0.9s3.6-20.7,2.9-22.9
				c-0.7-2.1-72.4-14.9-72.4-14.9s9.4-18.4,13-54.4C2705.8,1373.1,2674.2,1335.5,2670,1348.9z"/>
		</g>
		<path class="st11" d="M2747.3,1253.1l-17.9,65.3c0,0,30.2,47.1,38.5,42.9c8.3-4.2-4.6-38.3-4.6-42.9c0-4.6,12.9-52.5,12.9-52.5
			L2747.3,1253.1z"/>
		<path class="st14" d="M2763.9,1321.7c-0.4-1.5-0.6-2.7-0.6-3.3c0-4.6,12.9-52.5,12.9-52.5l-28.9-12.8l-5.9,21.6
			C2746.5,1297,2755.8,1311.9,2763.9,1321.7z"/>
		<path class="st11" d="M2814.1,1252c3.4,18.9,1.2,44.1-15.7,50.5c-16.8,6.4-37.1-5.8-45.2-27.3c-8.2-21.5-1.2-44.1,15.7-50.5
			C2785.7,1218.3,2810.1,1229.4,2814.1,1252z"/>
		<path class="st11" d="M2757.2,1262.7c2.4,6.6,0.3,13.4-4.6,15.1c-4.9,1.7-10.7-2.2-13.1-8.8c-2.4-6.6-0.3-13.4,4.6-15.1
			C2749,1252.1,2754.9,1256,2757.2,1262.7z"/>
		<path class="st8" d="M2814.3,1228.2c-5.7,44.4-59.7,38.7-59.7,38.7s-11.1-14.6-16.1-7c-5,7.7,6.9-45,37.9-46.7
			C2786.6,1212.7,2814.3,1228.2,2814.3,1228.2z"/>
		<ellipse class="st8" cx="2730.2" cy="1209.4" rx="29.2" ry="27.4"/>
	</g>
	<g>
		<g>
			<polygon class="st19" points="2672,1823.2 2678.7,1823.2 2721.8,1623.2 2707.1,1623.2 			"/>
			<polygon class="st19" points="2879.9,1823.2 2873.2,1823.2 2822.9,1616.1 2837.6,1616.1 			"/>
			<g>
				<path class="st19" d="M2748.3,1630.7c-26.8,0-43.8-4.8-54.6-15.4c-13.4-13.1-16.2-33.3-16.2-59.7c0-20.8-0.5-34.3-1.7-45.2
					c-0.4-4.1,2.6-7.8,6.7-8.2c4.1-0.4,7.8,2.6,8.2,6.7c1.2,11.5,1.7,25.4,1.7,46.7c0,26.7,3.4,40.9,11.7,49
					c8.5,8.3,23.8,11.7,49.8,11c25-0.6,42.3-4.1,56.1-6.9c18.2-3.7,31.4-6.4,47,1.1c3.7,1.8,5.3,6.3,3.5,10s-6.3,5.3-10,3.5
					c-11.1-5.3-20.5-3.4-37.5,0.1c-14.4,2.9-32.4,6.6-58.7,7.2C2752.2,1630.6,2750.2,1630.7,2748.3,1630.7z"/>
			</g>
		</g>
		<path class="st19" d="M2687.4,1501.2l41,1.7l-10.9,113.2c0,0-30.6-19.5-30.1-40.5C2687.9,1554.6,2687.4,1501.2,2687.4,1501.2z"/>
		<path class="st11" d="M2889.8,1511.8c34.7-5.3,46.4-3.6,67.7,35.9c21.2,39.5,49.5,110.6,65.7,119.8c24.5,13.8,32.6,47.7,42.6,46.2
			c10-1.5,16.5,2.9,5.6,12c-10.9,9.1-28.6,16.8-34.6,15.2c-6-1.6-10.7-27.7-26.5-36.1c-15.8-8.5-11-15.4-10-22.9
			c1-7.5-46-42-81.5-84.8c-21.7-26.2-32.8-43.5-34.5-59.2C2882.7,1522.1,2889.8,1511.8,2889.8,1511.8z"/>
		<path class="st14" d="M2975.7,1654.9c-8.1-20.4-16.1-54.1-23.7-85c-10.8-44-22.1-54.4-29.3-59.1c-8.7-2.2-18.9-1.2-32.9,0.9
			c0,0-7.1,10.3-5.5,26c1.7,15.7,12.8,33,34.5,59.2C2937.5,1619.5,2959.4,1639.7,2975.7,1654.9L2975.7,1654.9z"/>
		<path class="st19" d="M2900.4,1546.5c0,0-9.2,69.6-17.8,76.7c-6.1,5.1-10.5,5.4-14.8-15.4c-4.3-20.8,6.7-98.2,6.7-98.2
			L2900.4,1546.5z"/>
		<polygon class="st11" points="2893,1584.2 2807.6,1598.5 2855.8,1529.4 2892.5,1521.9 2914.5,1527 		"/>
		<path class="st19" d="M3000.3,1681.7c-2.8,11.2-2.4,19.4,2.4,23.5c4.8,4.1,23,34.8,23,34.8l5.7-0.9l-13.1-28.1L3000.3,1681.7z"/>
		<path class="st19" d="M3036.7,1740.8c6,1.6,23.7-6.1,34.6-15.2c10.9-9.1,4.5-13.5-5.6-12c-0.6,0.1-1.1,0.1-1.7-0.1
			c-5,11.2-21.5,19.6-26.8,7.8c-5.3-11.7-27.9-35.1-37-40.1c0,0.2,0,0.4,0,0.5c-1,7.5-5.8,14.4,10,22.9
			C3026,1713.1,3030.7,1739.2,3036.7,1740.8z"/>
		<path class="st14" d="M2715.6,1514.5c-30.3,54.4-9.6,88.9,27.2,92.4c36.8,3.5,94.9-3.2,128.8-31.3c33.9-28.1,61.7-57.9,57.8-62.4
			S2715.6,1514.5,2715.6,1514.5z"/>
		<path class="st11" d="M2887.3,1555.1c6.2-18.6,13.4-32.9,27.2-33.1c14.6-0.3,23.5,7.3,24.1,31.1c0.7,28.4,1.7,122.3,0.4,164
			c-1,31.6,8.2,41.7,7.4,74.7c-0.6,24.8,25.9,12.3,15.7,25.1c-7,8.8-27.9,6-40.8,4.3c-11.4-1.5,5.9-35.8-9.9-44.9
			c-13.6-7.9-13.9-20.7-5.3-30.3c8.6-9.7,1-38.3-4.8-58.3c-5.7-20-14.6-41.7-20.4-89.1C2879.3,1585,2883.5,1566.5,2887.3,1555.1z"/>
		<path class="st19" d="M2953.1,1806.8c-4.4,1.3-9.8,2.8-14.5,3c-9.5,0.3-12.4-10.2-13-24.4c-0.6-12.5-9.6-32.1-18.9-40
			c-0.2,0.2-0.3,0.4-0.5,0.7c-8.6,9.7-8.3,22.5,5.3,30.3c15.8,9.2-1.5,43.5,9.9,44.9c12.8,1.6,33.8,4.5,40.8-4.3
			C2968.8,1808.5,2960.6,1807.9,2953.1,1806.8z"/>
		<path class="st19" d="M2908.3,1742.4c0,0-13.9,14.5-12.6,20.6c1.3,6,5.6,21.3,6.3,33.1c0.7,11.8,1.4,25.3,1.4,25.3s5,0,5.4-1.4
			c0.4-1.4,3.2-47.8,3.2-47.8L2908.3,1742.4z"/>
		<path class="st18" d="M2701,1509.6c0,0-18,76.2,4.7,97.4c22.7,21.1,116.9,2.1,139.1,0.9c15-0.9,29.6,17.5,29.6,17.5
			s-10.5-42.5-3.3-76.9c7.2-34.4,18.7-36.7,18.7-36.7l-15.4-2.2H2701z"/>
		<path class="st16" d="M2696.9,1489.7c7.7,16.3-8.3,44.4-2.7,52.6c5.6,8.1,37.6,1.1,58.6-15.7c21-16.9,60.7-20.6,60.7-20.6
			L2696.9,1489.7z"/>
		<path class="st19" d="M2729.4,1628.6c63.5,2.4,130.2,1.3,130.2-8.2c0-9.5-2.9-16.1-52-12.3c-49.1,3.8-82.5,9.1-97.3,5.7
			C2695.5,1610.4,2729.4,1628.6,2729.4,1628.6z"/>
	</g>
	<path class="st19" d="M3404.4,1517.6h-890.6c-4.8,0-8.6-3.9-8.6-8.6v0c0-4.8,3.9-8.6,8.6-8.6h890.6c4.8,0,8.6,3.9,8.6,8.6l0,0
		C3413,1513.8,3409.1,1517.6,3404.4,1517.6z"/>
	<g>
		<path class="st11" d="M3524.9,1268.8c6.1,21.7-8.9,44-25.4,48.7c-16.5,4.7-28.3-10-34.5-31.7c-6.1-21.7,2.3-43,18.8-47.7
			C3500.3,1233.4,3518.7,1247.2,3524.9,1268.8z"/>
		<path class="st11" d="M3432.1,1688.8c0,0,42.4,65.8,48.1,68.7c5.7,2.9,20,3.6,14.7,14.3c-5.4,10.7-7.5,53-12.5,55.1
			c-5,2.1-47.9,7.2-41.5,0c6.4-7.2,10.4-3.6,13.7-16.5c3.2-12.9,7.8-37.2,1.7-42.2c-6.1-5-43.3-50.1-43.3-50.1L3432.1,1688.8z"/>
		<path class="st11" d="M3218.8,1717.1c0,0-51.5,84.9-61.1,92.6c-9.5,7.6-41,19.1-15.3,21c25.8,1.9,38.2-8.6,54.4-13.4
			s36.3-7.6,28.6-20c-7.6-12.4-4.5-39.5,12-56.7C3253.9,1723.4,3218.8,1717.1,3218.8,1717.1z"/>
		<path class="st20" d="M3481.7,1520.1c0,0-127.6-3.3-178.1,38.2c-29.6,44.8-101.1,177.2-106.7,191.8c3.8,3.8,25.3,10.7,34.8,9.7
			c28.1-33.6,65.4-62.6,80.2-88.9c18.2-32.4,23.9-48.7,53.4-51.5c29.6-2.9,96.4-12.4,116.4-12.4
			C3501.8,1607,3481.7,1520.1,3481.7,1520.1z"/>
		<polygon class="st19" points="3593,1830.9 3586.3,1830.9 3538.3,1630.8 3553.1,1630.8 		"/>
		<polygon class="st19" points="3392.7,1830.9 3399.4,1830.9 3454.4,1623.7 3439.7,1623.7 		"/>
		<path class="st18" d="M3554.4,1511.4l-74.2,12.8c0,0-98.5,0.9-143.6,9.3c-41,7.6-47,54.2,0,118.3c26.7,36.4,49.3,65.5,95.5,98.2
			c11.7-8.6,16.2-11.9,19.5-32.6c-3.3-4.6-12-33.3-14.7-38.9c-25.5-53.4-59.6-72.8-60.1-78.1c5.7-9.3,151.6,48.5,180.7,14.5
			C3585.2,1582.5,3554.4,1511.4,3554.4,1511.4z"/>
		<path class="st21" d="M3557.5,1343.5c-19.5-2.7-39.4,1-58,14.4c-16.3,16.6-34.7,43.9-33.5,89c1.4,57.2-8.9,60.9,1.9,76.7
			c44.8,18.5,121.3,97.9,103.3,12.8c-13.1-61.7,28.6-107.6-5-176C3563.4,1354.8,3560,1349.4,3557.5,1343.5z"/>
		<path class="st22" d="M3465.9,1468.5c-0.9,29.8-5.1,38.6-1.9,48c18.3,1.9,51.6,9.2,60,20.8c9.5,13.4,19.1,15.3,14.6,5.4
			c-4.5-9.9-16.2-23.9,1.9-71.9c18.1-48,26.7-80.5,8.9-113.9L3465.9,1468.5z"/>
		<path class="st11" d="M3557.5,1343.5c-12-28.5-15-60.5-15-60.5l-31.5,9.3c0,0,17.9,40.1,0.7,54.4c-3.7,3-7.9,6.7-12.3,11.2
			C3518.1,1344.5,3538,1340.8,3557.5,1343.5z"/>
		<path class="st14" d="M3543.5,1290.6c-1.9-1.7-4.2-3.7-6.7-5.9l-25.7,7.6c0,0,0,0.1-0.1,0.1c0.6,1.4,7.2,16.7,8,31.4
			c7.7-4.6,16-12.2,25.6-25.4C3544.2,1295.5,3543.8,1292.8,3543.5,1290.6z"/>
		<path class="st11" d="M3535.4,1352.5c-32.4,11.3-28.8,45.5-58.7,95.9c-15.4,26.1-29.8,25.7-29.8,25.7s-36.2,0.3-80-5.1
			c-27.4-3.4-29.2,4.8-10.1,11.6c38.5,13.8,78.4,28.6,110.6,25c32.2-3.6,87.3-85.7,90.1-107.1
			C3561.4,1368.9,3551.7,1346.8,3535.4,1352.5z"/>
		<g>
			<path class="st19" d="M3518.7,1638.3c-2,0-4.1,0-6.2-0.1c-26.4-0.7-44.3-4.3-58.7-7.2c-17.1-3.5-26.5-5.4-37.5-0.1
				c-3.7,1.8-8.2,0.2-10-3.5c-1.8-3.7-0.2-8.2,3.5-10c15.6-7.5,28.8-4.8,47-1.1c13.8,2.8,31.1,6.3,56.1,6.9
				c28.2,0.7,45.4-3.5,54.3-13.3c7.9-8.7,10.2-23.3,7.3-45.8c-1-7.6-2-14-2.8-19.6c-2.4-15.7-4-26.1-2-42
				c1.8-14.9,6.8-34.8,18.2-73.3c1.2-4,5.3-6.2,9.3-5.1c4,1.2,6.2,5.3,5.1,9.3c-21.4,72.1-20.3,79.2-15.7,108.8
				c0.9,5.7,1.9,12.1,2.9,19.9c3.5,27.2,0,45.5-11,57.7C3566.9,1632.6,3548.4,1638.3,3518.7,1638.3z"/>
		</g>
		<path class="st22" d="M3222.3,1788.6c-34.2,16.7-52.6,26.3-63.6,25.4c-2.6-0.2-4.7-0.5-6.5-0.8c-12.2,7.2-31.7,15.7-9.8,17.3
			c25.8,1.9,38.2-8.6,54.4-13.4c16.2-4.8,36.3-7.6,28.6-20C3224,1794.8,3223,1791.9,3222.3,1788.6z"/>
		<path class="st22" d="M3484,1758.9c-0.8,27.1-4.6,53.9-21.1,59c-4.4,1.3-8.4,1.5-11.9,1.1c-2.6,3.2-5.8,3.3-10,8
			c-6.4,7.2,36.5,2.1,41.5,0c5-2.1,7.2-44.4,12.5-55.1C3499.3,1763,3490.5,1760.9,3484,1758.9z"/>
		<g>
			<path class="st18" d="M3352.3,1501.9h-108.6c-2.9,0-5.6-1.7-6.8-4.3l-43.9-94.5c-1.7-3.8-0.1-8.2,3.6-10c3.8-1.7,8.2-0.1,10,3.6
				l41.9,90.1h103.8c4.1,0,7.5,3.4,7.5,7.5S3356.4,1501.9,3352.3,1501.9z"/>
		</g>
		<path class="st11" d="M3375,1469.9c-21.9-0.3-43.7-13.4-54.5-11.5c-10.8,1.9-46.1,26.4-41.7,27.4c4.5,1,32.4-13.6,33.4-13.8
			c1-0.2,7,10,21.9,13.8c14.9,3.8,0.1-11.2,46.4,2.8C3410.7,1497.7,3375,1469.9,3375,1469.9z"/>
		<path class="st23" d="M3554.3,1317.5l3.2,26c0,0-28.4,1.7-42.5,9.6c-14.1,8-35,30.9-35,30.9l17-29.3l2.5-18.8L3554.3,1317.5z"/>
		<path class="st23" d="M3542.2,1349.3c-21.1-4-30.9,14.9-44.5,45.8c-13.7,30.9-37,68.3-41.7,73.2c-4.6,4.8-78.2,0-78.2,0
			s-2.2,21.3,0,23.9c2.2,2.5,14.9,2.2,14.9,2.2s5.1,4.1,9.9,7.3s45.2,9.3,63.9,8.3c18.8-1,35.9-2.5,38.5-5.4
			c2.5-2.9,53.8-81.7,56.9-110.1C3565.1,1366.2,3552.9,1351.4,3542.2,1349.3z"/>
		<path class="st8" d="M3480,1219.6c-39.9,1.9-33.6,61.9-33.6,61.9s10.4,3.2,32.1-0.4c-1.7-6.4-1-22.9-1-22.9s2.5,13.4,5.7,21.5
			c4.6,2.1,9.8,0.2,18.6-1.9c4.5,19.1,17.3,27.1,26.1,29.9c9.7,3,19.9,6.7,31.4,1c11.5-5.7,5.2-64.2-0.9-76
			c-9.1-17.7-24.3-33.5-50.5-25.1C3494.7,1211.7,3480,1219.6,3480,1219.6z"/>
		<path class="st8" d="M3549.4,1290.9l16.3,23.8c0,0-18.1,45.2,34.5,65.6c41.2,16,36.3,44.3,17.7,72.7
			c-18.6,28.4,11.1,53.2,11.1,53.2s4.5-31.5,44.5-37.4c54.5-8.1,70-81.3,29.3-118c-33.7-30.3-44-5.2-66.8-32.4
			c-22.8-27.2-65.9-8.8-65.9-8.8l-15.8-23L3549.4,1290.9z"/>
		<g>
			<path class="st8" d="M3721.6,1424.4c-0.2,0-0.4-0.1-0.6-0.2c-0.6-0.3-0.9-1.1-0.5-1.8c13.7-25.1,2.5-55.6-3.1-63.8
				c-0.6-0.9-1.2-1.8-1.8-2.7c-5.5-8.7-12.4-19.4-49.2-26.1c-8.8-1.6-16-6.8-23.5-12.4c-15.7-11.5-33.5-24.6-72.1-6.8
				c-0.7,0.3-1.4,0-1.7-0.6c-0.3-0.7,0-1.4,0.6-1.7c40-18.4,58.5-4.9,74.8,7.1c7.3,5.4,14.2,10.4,22.4,11.9
				c37.9,6.8,45.2,18.1,51,27.2c0.6,0.9,1.1,1.8,1.7,2.6c3.4,5,7.6,15.3,9.3,27.1c1.5,10.2,1.6,25.4-6.1,39.5
				C3722.5,1424.2,3722,1424.4,3721.6,1424.4z"/>
		</g>
		<g>
			<path class="st8" d="M3540.6,1315.1c-2.6,0-5.4-0.2-8.4-0.7c-13.9-2.1-32.6-10-34-54.4c0-0.7,0.5-1.3,1.3-1.3
				c0.7,0,1.3,0.5,1.3,1.3c0.6,18.4,4.3,32,10.9,40.5c5,6.4,11.7,10.1,20.9,11.5c13,1.9,21.6-0.5,25.6-7.2c0.4-0.6,1.2-0.8,1.8-0.5
				c0.6,0.4,0.8,1.2,0.5,1.8C3556.8,1312.1,3550.2,1315.1,3540.6,1315.1z"/>
		</g>
	</g>
	<g>
		<path class="st13" d="M2295.6,1346.6c-46.3,26.5-110.7,136.5-97.1,154.5c13.6,18,86.6-29.3,86.6-29.3L2295.6,1346.6z"/>
		<path class="st8" d="M2382.1,1219c-17.7-0.5-11.1-13.6-31.5-8.4c-10.7,2.8-2.8,7.2-16.7,5.7s-20.7-2.9-22.5,6.2
			c-1.8,9.1-2.6,11.9-9.3,13.4s-9.7,13.4,0,21.5s5,11.5,2.8,18.1c-2.1,6.7,5.2,7.2,9.1,13.4c4,6.2-3.7,7.4,2.1,12.8
			c5.7,5.4,13.8,4.9,13.8,4.9l24.1-46.2L2382.1,1219z"/>
		<path class="st19" d="M2742.3,1773.7c0,0,25.8,0.7,45.8-7.2c20-7.9,33.6-20,30.1-5.7c-3.6,14.3-20,38.9-34.3,41.3
			c-14.3,2.4-19.3,18.1-27.2,18.1c-7.9,0-19.3-18.1-39.4-27.2C2699,1784.7,2742.3,1773.7,2742.3,1773.7z"/>
		<path class="st19" d="M2539.3,1771.3c0,0,10.8,14.9,29.7,25.3c19.5,10.7,41.9,15.9,28,20.8c-13.9,4.9-34.3,8.6-54.2,2.9
			c-13.9-4-30.3-4.9-34.6-11.5c-4.3-6.6,5.1-23.1,1.2-47.8C2506.3,1741.1,2539.3,1771.3,2539.3,1771.3z"/>
		<path class="st10" d="M2418.7,1531.1c0,0,149.2,55.9,161.3,71.5c12,15.6,168.9,157.9,168.9,168.4s-26.7,29.6-26.7,29.6
			s-134.5-82.5-167.9-124.5c-33.4-42-114.9-62.2-158.2-66.1S2418.7,1531.1,2418.7,1531.1z"/>
		<path class="st9" d="M2424.4,1531.1c0,0,102.1-3.8,124,0c21.9,3.8,70.1,3.8,38.6,92.6c-24.7,69.7-32.8,157.8-32.8,157.8
			l-49.1,12.1c0,0,1.9-158.6,25.4-200.8c-17.1,2.8-48.4,8.3-91.7,20.7c-80.5,23-124.6,11.5-124.6,11.5l-12-42L2424.4,1531.1z"/>
		<polygon class="st24" points="2339.1,1267.5 2314.2,1341.2 2345.7,1362 2363.5,1298.3 		"/>
		<path class="st25" d="M2348.5,1351.9l15-53.6l-24.4-30.8l-9.1,27C2333.1,1318.8,2340.7,1338.9,2348.5,1351.9z"/>
		<path class="st24" d="M2402.7,1280c0.8,22.4-10.2,41.8-27.7,43.5c-17.5,1.7-33.5-15-35.7-37.3c-2.2-22.3,10.2-41.8,27.7-43.5
			C2384.6,1240.9,2401.5,1244.6,2402.7,1280z"/>
		<path class="st12" d="M2302.2,1339.1c-76.6,51.7-28.9,135.3-12.1,196.4c14.3,52,13.9,83.5,16,83.5s54.8-7.9,84.9-35.1
			c30.1-27.2,50.4-53.5,50.4-53.5s-38.5-6.9-51.1-56.7c-6.4-25.3-3.5-39-18-79.1C2357.6,1354.4,2302.2,1339.1,2302.2,1339.1z"/>
		<path class="st12" d="M2302.2,1339.1l8.2-20.1c0,0,26,17.2,36.4,25.3c10.4,8.1,16.8,10,16.8,10s3.8,28.8,1.3,26.2
			C2334.2,1347.6,2302.2,1339.1,2302.2,1339.1z"/>
		<g>
			<polygon class="st19" points="2268.2,1830.9 2274.9,1830.9 2322.9,1630.8 2308.2,1630.8 			"/>
			<polygon class="st19" points="2468.5,1830.9 2461.9,1830.9 2406.8,1623.7 2421.5,1623.7 			"/>
			<g>
				<path class="st19" d="M2342.7,1638.3c-26.8,0-43.8-4.8-54.6-15.4c-13.4-13.1-16.2-33.3-16.2-59.7c-0.1-55.5-3.2-67-18.8-100.8
					c-1.7-3.8-0.1-8.2,3.7-9.9c3.8-1.7,8.2-0.1,9.9,3.7c16.5,35.8,20.1,49,20.1,107.1c0,26.7,3.4,40.9,11.7,49
					c8.5,8.3,23.8,11.7,49.8,11c25-0.6,42.3-4.1,56.1-6.9c18.2-3.7,31.4-6.4,47,1.1c3.7,1.8,5.3,6.3,3.5,10c-1.8,3.7-6.3,5.3-10,3.5
					c-11.1-5.3-20.5-3.4-37.5,0.1c-14.4,2.9-32.4,6.6-58.7,7.2C2346.7,1638.3,2344.7,1638.3,2342.7,1638.3z"/>
			</g>
		</g>
		<g>
			<path class="st10" d="M2673.6,1501H2565c-4.1,0-7.5-3.4-7.5-7.5s3.4-7.5,7.5-7.5h103.8l41.9-90.1c1.7-3.8,6.2-5.4,10-3.6
				c3.8,1.7,5.4,6.2,3.6,10l-43.9,94.5C2679.2,1499.3,2676.5,1501,2673.6,1501z"/>
		</g>
		<path class="st13" d="M2305,1414.4c0,0,19.1,58.2,42.7,82.3s71.1,32.2,86,31.2c-11.9-4.8-34.5-18.3-43.5-54.3
			c-6.4-25.3-3.5-39-18-79.1c-10.8-29.7-44.1-45.9-60.6-52.2c20.5,14.7,46.2,39,54.1,57.5C2374.4,1420.3,2305,1414.4,2305,1414.4z"
			/>
		<path class="st24" d="M2568.4,1465.4c0,0,32.9-15,36.5-13.6s40.1,23.5,40.1,27.1c0,3.7-32.2-13.6-32.2-13.6s3.6,9.5,1.4,14.1
			s-26.9,4.6-49.2,3.1S2568.4,1465.4,2568.4,1465.4z"/>
		<path class="st12" d="M2306.1,1369.4c-30.3,62.2,73.7,125.2,135.5,130.8c61.8,5.6,135.1-14.6,135.1-14.6l-8.3-20.2
			c0,0-123.7-16.1-126.9-18.4C2438.4,1444.8,2317.2,1346.6,2306.1,1369.4z"/>
		<path class="st24" d="M2345.5,1269.6c2.8,7.4,0.8,15-4.6,17.1c-5.4,2-12-2.3-14.8-9.7c-2.8-7.4-0.8-15,4.6-17.1
			C2336.1,1257.9,2342.7,1262.2,2345.5,1269.6z"/>
		<path class="st8" d="M2402.8,1222.2c8.4-3.5,17.8-7.2,14.9,7c-1.3,6.2,0,4.5,2.2,10.2c2.2,5.7-5.6,10.2-8.2,13.4
			c-2.5,3.2,3.7,6.6-1.4,10.5c-5.1,3.8-11.8-1.4-16.5,0c-14.2,4.2-12.4-6.9-20.4-9.2c-8-2.3-11.8-2-13.4,3.1
			c-1.5,5.1,5.6,21.8-0.5,20.2c-6-1.6-7.4,11.9-9,19.6c-1.6,7.6-5.8-5.3-5.5-14c0.4-13.4-2.9-19-7.8-22.8c-4.9-3.7-7-37.8,16.8-39.1
			c23.9-1.3,24-3.6,34.2-5.7C2398.5,1213.3,2399,1223.8,2402.8,1222.2z"/>
	</g>
	<g>
		<path class="st26" d="M3740.2,1611.3c15.2,13.9,8.6,27.8-2.6,53.6c-11.2,25.8-13.2,121-13.2,121l9.3-1.3c0,0-1.3-97.9,11.2-124.3
			c12.6-26.5,17.9-39.7,29.1-31.1C3785.2,1637.8,3740.2,1611.3,3740.2,1611.3z"/>
		<path class="st27" d="M3731.8,1593.3c1.8-8.2,12.8-17.1,27.5-24.7c-2.2,12.1-9.2,32-1.9,36.1c9.8,5.5,1-22.2,4.7-37.5
			c13.8-6.7,30.3-12.2,45.6-15c0,0.1,0,0.1-0.1,0.2c-8.6,21.8-19.8,30.4-15.2,33.7c3.5,2.5,14.8-22.7,29.8-35.6
			c11.2-0.6,20.8,0.9,26.4,5.4c8.7,6.9,14.5,13,5.8,34c-5,3.6-11.5,6.1-19,6.9c-19.8,2-29.1,2.6-15.2,9.3c6.8,3.2,18.2-0.2,27.4-2.3
			c-3,5.5-6.7,11.8-11.2,18.9c-2.8,4.5-6,8.4-9.3,11.8c-6.4,1.2-12,1.2-14.9,0c-9.3-4-33.1-16.5-39-11.2
			c-5.8,5.2,44.1,8.5,40.6,21.6c-24.2,13.9-51.9,7.3-56.8-5.5C3750.6,1622.2,3726.3,1618.1,3731.8,1593.3z"/>
		<path class="st26" d="M3781.9,1687.4c-26.5-19.8-53.6-1.3-67.5,19.8c-13.9,21.2-4,68.8-4,68.8s5.3,0,5.3-2
			c0-2-14.5-56.2,19.8-80.7c21.5-15.3,37-7.9,39-0.7c2,7.3-8.6,20.5-8.6,20.5L3781.9,1687.4z"/>
		<path class="st27" d="M3721,1646.6c26.5,0,35.1,41,27.8,64.8c-7.3,23.8-17.2,68.1-17.2,68.1l-6.6-6.6c0,0,25.1-62.2,19.2-89.9
			c-6-27.8-20.5-32.4-23.1-32.4C3718.4,1650.6,3721,1646.6,3721,1646.6z"/>
		<path class="st26" d="M3743.2,1711.6c1.9-2.5,4.2-4.5,7-5.9c-0.4,2-0.8,3.9-1.4,5.7c-3.3,10.8-7.2,25.9-10.4,39.2
			c-0.3-1.7-0.7-4.3-1.4-8.3c-0.2-1-0.3-2-0.4-3.1C3739.2,1730.4,3741.6,1720.8,3743.2,1711.6z"/>
		<path class="st27" d="M3750.4,1711.8c50.3-21.2,23.8-50.2,68.1-31c3.1,1.4,6.9,4.8,10.7,9.5c-3.9,1.1-8.7,1.9-14,1.1
			c-13.2-2-8.6,8.6,13.2,11.2c4.1,0.5,7.5,1.2,10.2,2.2c10.4,20,15.1,46.2-6.9,55.4c-4.3,1.8-9.7,2.8-15.7,3.2
			c-6.8-5.4,1.7-36.6-8.8-32.3c-10,4.1,3.1,26.8,1.3,32.5c-9.9-0.2-20.9-1.8-31.4-4.4c-4.2-2.3-7.3-5.4-8.3-9.6
			c-3.3-13.9,18.5-22.5,19.2-34.4c0.6-10.9-8,24.1-30.8,29.2C3736.7,1734.8,3726.9,1721.7,3750.4,1711.8z"/>
		<path class="st27" d="M3714.6,1674.4c5.3-11.2-8.6-13.9-7.9-5.3c0.6,7.6,0.7,26.1-7.2,31.2c-13.5-1.5-31.8-6.9-45.7-15.2
			c-0.2-1.1,0-2.3,0.6-3.4c6-11.9,44.3-21.8,32.4-25.8c-9.5-3.2-26.1,15.5-39.5,24.9c-8-6.1-13.4-13.4-13.4-21.5
			c0-11,13.3-23.4,30.6-29.4c7.8,0.8,15,5,26.3,11.4c16.7,9.4,12.8-5.8-2.9-14.9c13.6,0.7,27.1,6.5,37.1,20.4c0,0-0.9,5.9,5.3,15.1
			c17.1,25-2.6,39.6-26.3,38.7C3705.4,1694,3711,1682.1,3714.6,1674.4z"/>
		<path class="st26" d="M3780.3,1686.3c12.9,10,27.3,21.7,44.9,29.6c17.6,7.9,14.1,33.8,14.1,33.8s2.6-22.3-12.1-30
			c-14.7-7.6-24.4-16.8-35.6-18.5c-11.2-1.8-17.3-3.5-17.3-3.5s3.5-7.1,1.5-9.7C3773.8,1685.3,3780.3,1686.3,3780.3,1686.3z"/>
		<path class="st26" d="M3844,1568.9c-47.3,12.6-82,42.9-88.5,50.3c-6.5,7.3-6.5,9.4-6.5,9.4l5,9.4l2.4-1.2c0,0-3.8-7.9,6.2-18.2
			c17.2-17.7,38.2-31.7,52.6-37.9S3844,1568.9,3844,1568.9z"/>
		<path class="st18" d="M3722.4,1830.9L3722.4,1830.9c17.8,0,32.3-14.5,32.3-32.3V1766h-64.6v32.5
			C3690.1,1816.4,3704.6,1830.9,3722.4,1830.9z"/>
		<rect x="3690.1" y="1773.5" class="st7" width="64.6" height="4.5"/>
		<rect x="3690.1" y="1781.8" class="st7" width="64.6" height="2.7"/>
	</g>
	<g>
		<g>
			<path class="st15" d="M2946.6,898.6c0-49-39.4-88.8-88.2-89.4c-49.1-0.6-89.8,38.9-90.6,87.9c-0.4,23.9,8.7,45.8,23.7,62
				c6.9,7.5,10.7,17.3,10.7,27.5v40.1c0,25.9,21.2,47.1,47.1,47.1h15.7c25.9,0,47.1-21.2,47.1-47.1v-40.1c0-10.3,4-20.1,10.9-27.7
				C2937.7,943.1,2946.6,921.9,2946.6,898.6z"/>
			<path class="st28" d="M2934.1,904.6c0-42.1-33.9-76.4-75.9-76.9c-42.2-0.5-77.2,33.5-77.9,75.7c-0.3,20.6,7.4,39.4,20.3,53.4
				c5.9,6.4,9.2,14.9,9.2,23.7v34.5c0,22.3,18.2,40.6,40.6,40.6h13.5c22.3,0,40.6-18.2,40.6-40.6v-34.5c0-8.8,3.4-17.3,9.4-23.8
				C2926.4,942.9,2934.1,924.6,2934.1,904.6z"/>
			<g>
				<path class="st29" d="M2870.4,1002.7H2841c-1.4,0-2.5-1.1-2.7-2.4c-0.1-0.6-5.5-57.4-31-73.3c-1.3-0.8-1.6-2.4-0.8-3.7
					c0.8-1.3,2.4-1.6,3.7-0.8c24.8,15.5,31.8,63.4,33.2,74.9h24.2c-0.1-4,0.1-11.6,2.4-21.5c3-13.2,10.5-33.1,28.8-53
					c1-1.1,2.7-1.2,3.8-0.2c1.1,1,1.2,2.7,0.2,3.8c-33.4,36.4-29.7,72.9-29.7,73.2c0.1,0.8-0.2,1.5-0.7,2.1
					C2871.9,1002.4,2871.2,1002.7,2870.4,1002.7z"/>
			</g>
			<g>
				<path class="st29" d="M2892.4,930.6c-9.9,0-23.5-7.1-37.8-14.7c-18.4,9.8-35.6,18.6-45.3,12.8c-4.5-2.7-6.7-8.1-6.6-16.4
					c0.1-7.8,2.3-13.1,6.7-15.7c9.7-5.7,26.9,3.4,45.2,13.2c18.7-10,36.3-19.3,45.9-13.4c4.3,2.6,6.5,8,6.4,15.9
					c-0.1,8.2-2.5,13.8-7,16.5C2897.8,930.1,2895.3,930.6,2892.4,930.6z M2860.4,912.9c14.7,7.8,30.1,15.3,36.9,11.3
					c2.8-1.7,4.3-5.7,4.4-11.9c0.1-5.9-1.2-9.7-3.8-11.2C2891.3,897,2875.3,904.9,2860.4,912.9z M2816.7,900.2c-1.8,0-3.3,0.3-4.5,1
					c-2.6,1.6-4,5.3-4,11.1c-0.1,6.2,1.3,10.1,4,11.8c6.6,4,22-3.4,36.8-11.2C2837,906.5,2824.5,900.2,2816.7,900.2z"/>
			</g>
			<path class="st29" d="M2865.9,1086.6h-15.5c-6.5,0-11.8-5.3-11.8-11.8l0,0c0-6.5,5.3-11.8,11.8-11.8h15.5
				c6.5,0,11.8,5.3,11.8,11.8l0,0C2877.6,1081.3,2872.3,1086.6,2865.9,1086.6z"/>
			<path class="st29" d="M2799.6,997.9v28.3c0,27.2,22.2,49.4,49.4,49.4h16.5c27.2,0,49.4-22.2,49.4-49.4v-28.3H2799.6z"/>
			<path class="st30" d="M2913.9,1006.8h-112.1c-3.7,0-6.8-3.1-6.8-6.8l0,0c0-3.7,3.1-6.8,6.8-6.8h112.1c3.7,0,6.8,3.1,6.8,6.8l0,0
				C2920.7,1003.8,2917.7,1006.8,2913.9,1006.8z"/>
			<path class="st30" d="M2914.7,1017l-111.9,13.8c-3.5,0.4-6.7-2.1-7.2-5.6l-0.1-0.7c-0.4-3.5,2.1-6.7,5.6-7.2l111.9-13.8
				c3.5-0.4,6.7,2.1,7.2,5.6l0.1,0.7C2920.7,1013.3,2918.2,1016.6,2914.7,1017z"/>
			<path class="st30" d="M2914.7,1036.6l-111.9,13.8c-3.5,0.4-6.7-2.1-7.2-5.6l-0.1-0.7c-0.4-3.5,2.1-6.7,5.6-7.2l111.9-13.8
				c3.5-0.4,6.7,2.1,7.2,5.6l0.1,0.7C2920.7,1032.9,2918.2,1036.2,2914.7,1036.6z"/>
			<path class="st30" d="M2907.8,1057.5l-93.2,11.5c-3.2,0.4-6.2-1.9-6.6-5.1l-0.2-1.8c-0.4-3.2,1.9-6.2,5.1-6.6l93.2-11.5
				c3.2-0.4,6.2,1.9,6.6,5.1l0.2,1.8C2913.3,1054.2,2911,1057.1,2907.8,1057.5z"/>
		</g>
		<g>
			<path class="st30" d="M3714.8,1083h60.1c0,33-27.1,60.1-60.1,60.1s-60.1-27.1-60.1-60.1c0-33,27.1-60.1,60.1-60.1V1083z"/>
			<g>
				<path class="st31" d="M3785,1074.5c0-33.2-26.9-60.1-60.1-60.1v60.1H3785z"/>
				<path class="st31" d="M3664.8,1074.5c0,33.2,26.9,60.1,60.1,60.1C3691.9,1134.6,3664.8,1107.5,3664.8,1074.5z"/>
				<path class="st31" d="M3724.9,1014.5c-33.2,0-60.1,26.9-60.1,60.1C3664.8,1041.6,3691.9,1014.5,3724.9,1014.5z"/>
				<path class="st31" d="M3724.9,1134.6c33.2,0,60.1-26.9,60.1-60.1C3785,1107.5,3757.8,1134.6,3724.9,1134.6z"/>
			</g>
		</g>
		<g>
			<rect x="2539" y="1043.2" class="st30" width="13.1" height="38"/>
			<rect x="2707.2" y="1055.6" class="st30" width="13.1" height="25.6"/>
			<rect x="2594.6" y="992.4" class="st30" width="13.1" height="88.8"/>
			<rect x="2622.4" y="1041.3" class="st30" width="13.1" height="39.9"/>
			<rect x="2650.2" y="1030" class="st30" width="13.1" height="51.2"/>
			<rect x="2566.8" y="1018.1" class="st30" width="13.1" height="63"/>
			<rect x="2678.1" y="1003.5" class="st30" width="13.1" height="77.6"/>
		</g>
		<g>
			<defs>
				<path id="SVGID_3_" d="M2120.5,852.9c-42,0-76.1,34.1-76.1,76.1s34.1,76.1,76.1,76.1s76.1-34.1,76.1-76.1
					S2162.5,852.9,2120.5,852.9z M2120.5,969.3c-22.3,0-40.3-18.1-40.3-40.3c0-22.3,18.1-40.3,40.3-40.3s40.3,18.1,40.3,40.3
					C2160.8,951.3,2142.7,969.3,2120.5,969.3z"/>
			</defs>
			<clipPath id="SVGID_2_">
				<use xlink:href="#SVGID_3_"  style="overflow:visible;"/>
			</clipPath>
			<path class="st32" d="M2189.3,971.1l-68.8-42.1l-12.4,79.7C2140.3,1013.8,2172.4,998.7,2189.3,971.1z"/>
			<path class="st33" d="M2189.4,971c0.2-0.3,0.4-0.7,0.4-0.7c14.5-24.3,15.1-54.6,1.8-79.4c-24.4,12.8-9.8,5-71.1,38.1
				C2189.4,971.2,2178.7,964.7,2189.4,971z"/>
			<path class="st34" d="M2044.8,901.1l75.6,27.9l71-38.4C2158.2,829.3,2068.9,836.6,2044.8,901.1z"/>
			<path class="st35" d="M2108,1008.7l12.4-79.7l-75.6-27.9C2026.8,949.4,2058.8,1000.9,2108,1008.7z"/>
			<path class="st36" d="M2039.9,914.3c1.4,0,2.7,0.4,3.8,1c0.7-3.6,1.6-7.2,2.7-10.7l41.1,15.1c0,0,0,0,0,0c-0.1-1.9,0.6-3.6,1.8-5
				l-4.1-1.5l-36.9-13.6c3-7.4,7-14.1,11.9-20c-1.7-0.6-3.2-1.9-4.1-3.4c-5.2,6.4-9.6,13.6-12.8,21.6l0,0l-0.9,2.5l-0.9,2.5l0,0
				c-1.3,3.9-2.3,7.8-3,11.7C2038.9,914.4,2039.4,914.3,2039.9,914.3z"/>
			<path class="st37" d="M2195,891.7L2195,891.7l-1.2-2.4c0,0-0.1-0.1-0.1-0.1l-1-1.9l0,0c-8-14-19.5-25.1-33.2-32.3
				c-13.5-7-28.8-10.2-44.3-9.1c-18.3,1.3-34.9,8.1-48.1,19.2c1.6,0.9,2.7,2.4,3.4,4.1c12.4-10.4,28-16.8,45.1-18
				c29.9-2.1,57.3,12.5,72.4,38.3l-21,11.3c-4.3,2.3-10.4,5.6-20.5,11.1c-6.5,3.5-14.7,7.9-25.1,13.6l-0.6,0.3l-2.1-1.3l-0.1,0.7
				l-14.8-5.4c0,1.9-0.8,3.6-2,5l15.9,5.9l-11.7,74.8c-22.1-4.3-41.2-17.8-52.7-37.6c-6.9-11.8-10.5-24.9-10.6-38.1
				c-0.8,0.3-1.7,0.5-2.6,0.5c-1,0-1.9-0.2-2.8-0.5c0.2,14.2,4,28.2,11.4,40.8c12.3,21.1,32.8,35.6,56.5,40.2l0,0l2.6,0.4
				c0,0,2.7,0.4,2.7,0.4l0,0c3.4,0.4,6.9,0.6,10.3,0.6c12,0,24-2.6,35-7.8c14.2-6.6,26.1-16.9,34.6-30l0.1,0l0.5-0.9
				c0,0,0.9-1.4,0.9-1.4c0.1-0.2,0.3-0.5,0.4-0.6l0.1-0.1c0,0,0,0,0-0.1l0.8-1.4l0,0C2206.6,946.1,2207.4,916.5,2195,891.7z
				 M2111.1,1006.4l11.4-73l29.7,18.2c12,7.3,18.8,11.5,23.1,14.1l10.2,6.3C2169.2,996.8,2140.5,1010.1,2111.1,1006.4z
				 M2188.4,967.3c0,0-0.5-0.3-0.5-0.3c-2.8-1.7-4-2.4-9.6-5.8l-52.4-32.1l43.5-23.5c6.4-3.4,9-4.8,15.5-8.2
				c1.6-0.8,3.4-1.8,5.6-2.9C2201.8,917.5,2201,945,2188.4,967.3z"/>
		</g>
		<g>
			<path class="st30" d="M2557.9,943.8h-214.3c-4.5,0-8.2-3.7-8.2-8.2v-87.9c0-4.5,3.7-8.2,8.2-8.2h214.3c4.5,0,8.2,3.7,8.2,8.2
				v87.9C2566.1,940.1,2562.5,943.8,2557.9,943.8z"/>
			<path class="st7" d="M2553.2,938.9h-204.8c-3.6,0-6.6-3-6.6-6.6v-58.8c0-3.6,3-6.6,6.6-6.6h204.8c3.6,0,6.6,3,6.6,6.6v58.8
				C2559.8,935.9,2556.9,938.9,2553.2,938.9z"/>
			<g>
				<path class="st7" d="M2350.3,855.3h-1.7c-2,0-3.7-1.6-3.7-3.7v-0.8c0-2,1.6-3.7,3.7-3.7h1.7c2,0,3.7,1.6,3.7,3.7v0.8
					C2354,853.7,2352.4,855.3,2350.3,855.3z"/>
				<path class="st7" d="M2366.8,855.3h-1.7c-2,0-3.7-1.6-3.7-3.7v-0.8c0-2,1.6-3.7,3.7-3.7h1.7c2,0,3.7,1.6,3.7,3.7v0.8
					C2370.4,853.7,2368.8,855.3,2366.8,855.3z"/>
				<path class="st7" d="M2383.2,855.3h-1.7c-2,0-3.7-1.6-3.7-3.7v-0.8c0-2,1.6-3.7,3.7-3.7h1.7c2,0,3.7,1.6,3.7,3.7v0.8
					C2386.9,853.7,2385.2,855.3,2383.2,855.3z"/>
			</g>
			<path class="st30" d="M2550.9,882.7h-115.3c-1.9,0-3.5-1.6-3.5-3.5c0-1.9,1.6-3.5,3.5-3.5h115.3c1.9,0,3.5,1.6,3.5,3.5
				C2554.4,881.1,2552.8,882.7,2550.9,882.7z"/>
			<path class="st30" d="M2464.2,935.9h-115.3c-1.9,0-3.5-1.6-3.5-3.5c0-1.9,1.6-3.5,3.5-3.5h115.3c1.9,0,3.4,1.6,3.4,3.5
				C2467.6,934.4,2466.1,935.9,2464.2,935.9z"/>
			<path class="st30" d="M2484.4,935.9h-9.9c-1.2,0-2.2-1-2.2-2.2v-2.5c0-1.2,1-2.2,2.2-2.2h9.9c1.2,0,2.2,1,2.2,2.2v2.5
				C2486.6,934.9,2485.6,935.9,2484.4,935.9z"/>
			<path class="st30" d="M2502.4,935.9h-9.9c-1.2,0-2.2-1-2.2-2.2v-2.5c0-1.2,1-2.2,2.2-2.2h9.9c1.2,0,2.2,1,2.2,2.2v2.5
				C2504.6,934.9,2503.6,935.9,2502.4,935.9z"/>
			<path class="st30" d="M2552,897.7h-191c-1.3,0-2.3-1.1-2.3-2.3c0-1.3,1.1-2.3,2.3-2.3h191c1.3,0,2.3,1.1,2.3,2.3
				C2554.4,896.7,2553.3,897.7,2552,897.7z"/>
			<path class="st30" d="M2552,907.8h-191c-1.3,0-2.3-1.1-2.3-2.3c0-1.3,1.1-2.3,2.3-2.3h191c1.3,0,2.3,1.1,2.3,2.3
				C2554.4,906.8,2553.3,907.8,2552,907.8z"/>
		</g>
		<g>
			<path class="st38" d="M3128.2,877.4h-98.5V820h74.1c9.5,9.5,14.9,14.9,24.4,24.4V877.4z"/>
			<polygon class="st31" points="3102,820 3102,850.6 3128.2,850.6 3128.2,844.7 3103.6,820.1 			"/>
			<polygon class="st38" points="3103.8,820 3103.8,844.7 3128.2,844.7 			"/>
			<path class="st7" d="M3084.7,841.5h-43.9c-1,0-1.7-0.8-1.7-1.7c0-1,0.8-1.7,1.7-1.7h43.9c1,0,1.7,0.8,1.7,1.7
				C3086.5,840.7,3085.7,841.5,3084.7,841.5z"/>
			<path class="st7" d="M3084.7,850.4h-43.9c-1,0-1.7-0.8-1.7-1.7c0-1,0.8-1.7,1.7-1.7h43.9c1,0,1.7,0.8,1.7,1.7
				C3086.5,849.6,3085.7,850.4,3084.7,850.4z"/>
			<path class="st7" d="M3084.7,859.8h-43.9c-1,0-1.7-0.8-1.7-1.7c0-1,0.8-1.7,1.7-1.7h43.9c1,0,1.7,0.8,1.7,1.7
				C3086.5,859,3085.7,859.8,3084.7,859.8z"/>
		</g>
		<circle class="st10" cx="3076" cy="824.4" r="2.9"/>
		
			<rect x="2635.5" y="816.2" transform="matrix(0.9818 0.1897 -0.1897 0.9818 210.4118 -490.3967)" class="st39" width="62.6" height="75.5"/>
		<path class="st30" d="M2691.7,854.8l-32.6-6.3c-0.9-0.2-1.4-1-1.3-1.9c0.2-0.9,1-1.4,1.9-1.3l32.6,6.3c0.9,0.2,1.4,1,1.3,1.9
			C2693.4,854.4,2692.6,855,2691.7,854.8z"/>
		<path class="st30" d="M2690.1,863l-32.6-6.3c-0.9-0.2-1.4-1-1.3-1.9c0.2-0.9,1-1.4,1.9-1.3l32.6,6.3c0.9,0.2,1.4,1,1.3,1.9
			C2691.9,862.6,2691,863.1,2690.1,863z"/>
		<path class="st30" d="M2688.5,871.3l-32.6-6.3c-0.9-0.2-1.4-1-1.3-1.9c0.2-0.9,1-1.4,1.9-1.3l32.6,6.3c0.9,0.2,1.4,1,1.3,1.9
			C2690.2,870.9,2689.4,871.5,2688.5,871.3z"/>
		<path class="st10" d="M2669.7,820.9c-0.3,1.5-1.7,2.4-3.1,2.1c-1.5-0.3-2.4-1.7-2.1-3.1c0.3-1.5,1.7-2.4,3.1-2.1
			C2669,818,2669.9,819.4,2669.7,820.9z"/>
		<path class="st30" d="M3173.7,957.7l-95.1-10l6.3-59.6l75.4,7.9c6.9,8.5,10.7,13.3,17.6,21.8L3173.7,957.7z"/>
		<polygon class="st7" points="3158.9,900.3 3088.1,892.8 3082.8,943.1 3170.8,952.4 3173.9,922.9 3156.7,921.1 		"/>
		<path class="st30" d="M3149.3,918.5l-45.9-4.8c-1.1-0.1-1.8-1.1-1.7-2.1c0.1-1.1,1.1-1.8,2.1-1.7l45.9,4.8
			c1.1,0.1,1.8,1.1,1.7,2.1C3151.3,917.9,3150.4,918.7,3149.3,918.5z"/>
		<path class="st30" d="M3148.3,928.6l-45.9-4.8c-1.1-0.1-1.8-1.1-1.7-2.1c0.1-1.1,1.1-1.8,2.1-1.7l45.9,4.8
			c1.1,0.1,1.8,1.1,1.7,2.1C3150.3,928,3149.3,928.8,3148.3,928.6z"/>
		<path class="st30" d="M3147.1,939.2l-45.9-4.8c-1.1-0.1-1.8-1.1-1.7-2.1c0.1-1.1,1.1-1.8,2.1-1.7l45.9,4.8
			c1.1,0.1,1.8,1.1,1.7,2.1C3149.1,938.5,3148.2,939.3,3147.1,939.2z"/>
		<circle class="st10" cx="3120.4" cy="901.8" r="2.9"/>
		<g>
			<path class="st27" d="M3646.3,855.3c0,18.1-14.7,32.8-32.8,32.8c-18.1,0-32.8-14.7-32.8-32.8c0-18.1,14.7-32.8,32.8-32.8
				C3631.6,822.5,3646.3,837.2,3646.3,855.3z"/>
			<g>
				<path class="st7" d="M3610.2,866.6C3610.2,866.6,3610.2,866.6,3610.2,866.6c-0.5,0-0.9-0.2-1.2-0.5l-8.9-10.1
					c-0.6-0.7-0.5-1.7,0.1-2.3c0.7-0.6,1.7-0.5,2.3,0.1l7.8,8.9l17.8-17.5c0.6-0.6,1.7-0.6,2.3,0c0.6,0.6,0.6,1.7,0,2.3l-19.1,18.7
					C3611,866.4,3610.6,866.6,3610.2,866.6z"/>
			</g>
		</g>
		<g>
			<path class="st30" d="M2141.5,1160.2h174c9.1,0,16.5-7.4,16.5-16.5v-52.3c0-9.1-7.4-16.5-16.5-16.5h-174
				c-9.1,0-16.5,7.4-16.5,16.5v52.3C2125,1152.8,2132.4,1160.2,2141.5,1160.2z"/>
			<path class="st30" d="M2307,1147.3v47.1l-54.2-54.2C2252.8,1140.1,2305.9,1147.3,2307,1147.3z"/>
			<path class="st7" d="M2149.7,1151.7h157.6c7.7,0,14-6.3,14-14v-40.4c0-7.7-6.3-14-14-14h-157.6c-7.7,0-14,6.3-14,14v40.4
				C2135.7,1145.4,2142,1151.7,2149.7,1151.7z"/>
			<path class="st30" d="M2220.2,1100.2h83.8c2,0,3.7-1.7,3.7-3.7c0-2-1.7-3.7-3.7-3.7h-83.8c-2,0-3.7,1.7-3.7,3.7
				C2216.5,1098.6,2218.2,1100.2,2220.2,1100.2z"/>
			<path class="st30" d="M2150.2,1114.3h155.4c1.1,0,2.1-0.9,2.1-2.1l0,0c0-1.1-0.9-2.1-2.1-2.1h-155.4c-1.1,0-2.1,0.9-2.1,2.1l0,0
				C2148.2,1113.4,2149.1,1114.3,2150.2,1114.3z"/>
			<path class="st30" d="M2150.2,1122.3h155.4c1.1,0,2.1-0.9,2.1-2.1l0,0c0-1.1-0.9-2.1-2.1-2.1h-155.4c-1.1,0-2.1,0.9-2.1,2.1l0,0
				C2148.2,1121.4,2149.1,1122.3,2150.2,1122.3z"/>
		</g>
		<g>
			<path class="st30" d="M3537.4,1100.6h3.3c3.9,0,7.1-3.2,7.1-7.1v-1.6c0-3.9-3.2-7.1-7.1-7.1h-3.3c-3.9,0-7.1,3.2-7.1,7.1v1.6
				C3530.3,1097.4,3533.5,1100.6,3537.4,1100.6z"/>
			<path class="st30" d="M3505.6,1100.6h3.3c3.9,0,7.1-3.2,7.1-7.1v-1.6c0-3.9-3.2-7.1-7.1-7.1h-3.3c-3.9,0-7.1,3.2-7.1,7.1v1.6
				C3498.5,1097.4,3501.7,1100.6,3505.6,1100.6z"/>
			<path class="st30" d="M3473.7,1100.6h3.3c3.9,0,7.1-3.2,7.1-7.1v-1.6c0-3.9-3.2-7.1-7.1-7.1h-3.3c-3.9,0-7.1,3.2-7.1,7.1v1.6
				C3466.6,1097.4,3469.8,1100.6,3473.7,1100.6z"/>
		</g>
	</g>
</g>
<g>
	<path class="st40" d="M320.4,1205.4c0,23.5-17.9,35.7-46.7,35.7h-17.4v57.3h16.8v0.9h-51.4v-0.9h16.8v-127.5h-16.8v-0.9h48.6
		C301.9,1169.9,320.4,1181.9,320.4,1205.4z M301.7,1205.4c0-17.4-4.1-34.5-31.2-34.5h-14.2v69.3h16.8
		C297.7,1240.1,301.7,1222.7,301.7,1205.4z"/>
	<path class="st40" d="M378.4,1298.3v0.9h-44.2v-0.9h14.2v-127.5h-14.2v-0.9h30.1v128.4H378.4z"/>
	<path class="st40" d="M477.1,1288.3c-1.8,5.7-6.1,12.7-16.4,12.7c-9.8,0-15.9-5-15.9-17.9v-2.8c-2.6,10.7-10.9,20.7-24.8,20.7
		c-14.6,0-30.5-4.6-30.5-22c0-18.8,18.3-22.9,34.2-25.5c6.5-0.9,15.3-1.8,21.1-2.6v-1.1c0-18.8,1.3-37.1-17.7-37.1
		c-10.7,0-17.7,3.9-17.7,11.1c0,3.3,1.3,4.8,1.3,9.1c0,4.6-2.6,7.4-7,7.4c-4.2,0-7-3.5-7-7.9c0-12.7,16.1-20.3,30.5-20.3
		c23.8,0,33.6,12.4,33.6,35.1v35.8c0,8.3-0.6,15.3,5.5,15.3c5,0,8.5-5.2,10.2-10.3L477.1,1288.3z M444.7,1272.4v-20.5
		c-5.4,0.7-13.7,1.5-20.3,2.6c-16.1,3-18.1,16.6-18.1,24.4c0,11.8,4.8,21.1,15.3,21.1C435.5,1300,444.7,1286.8,444.7,1272.4z"/>
	<path class="st40" d="M583.9,1298.3v0.9h-44.2v-0.9h14V1242c0-9.2-0.4-27.7-14.6-27.7c-17.2,0-24.8,25.1-24.8,39.4v44.7h14.2v0.9
		h-44.2v-0.9h14v-83.7h-14v-0.9h29.9v30.1c2.4-14.2,10.2-31.8,28.6-31.8c14.2,0,26.8,7,26.8,32.5v53.8H583.9z"/>
	<path class="st40" d="M639.1,1298.3v0.9h-44.2v-0.9h14v-83.7h-14v-0.9h29.9v84.6H639.1z M608.1,1186.5c0-5,4.1-8.9,8.9-8.9
		c5,0,9.1,3.9,9.1,8.9s-4.1,9.1-9.1,9.1C612.1,1195.6,608.1,1191.5,608.1,1186.5z"/>
	<path class="st40" d="M749.6,1298.3v0.9h-44.2v-0.9h14V1242c0-9.2-0.4-27.7-14.6-27.7c-17.2,0-24.8,25.1-24.8,39.4v44.7h14.2v0.9
		h-44.2v-0.9h14v-83.7h-14v-0.9h29.9v30.1c2.4-14.2,10.2-31.8,28.6-31.8c14.2,0,26.8,7,26.8,32.5v53.8H749.6z"/>
	<path class="st40" d="M843.1,1309.2c0,21.8-22.5,36-44.9,36c-22.2,0-38.4-9.8-38.4-22.7c0-11.6,12.9-18.3,23.1-20
		c-13.1-2-18.5-7-18.5-14.6c0-11.6,13.3-15.5,19.8-16.8c-10.9-4.8-18.8-14.8-18.8-27.9c0-19.2,16.6-31.2,34.5-31.2
		c6.1,0,12,1.3,17.2,3.9c2-8.5,8.1-16.3,17.6-16.3c4.4,0,7.8,2,7.8,5.9c0,2.8-2,5-5.2,5c-5,0-5.7-3.7-10.3-3.7
		c-3.9,0-7.6,3.5-8.9,9.4c9.8,5.2,16.6,14.6,16.6,27c0,19-16.6,31-34.7,31c-5,0-10.2-0.9-14.6-2.8c-5.4,0.9-16.4,4.2-16.4,10.7
		c0,6.5,9.6,5.7,34.5,5.7C830.1,1288,843.1,1292.8,843.1,1309.2z M834.6,1317c0-15.1-17.7-13.5-35.5-13.5c-5.2,0-9.8-0.2-13.7-0.7
		c-5.9,0.9-15.1,4.8-15.1,18.5c0,14,10.2,23.1,28.1,23.1C815.9,1344.3,834.6,1334.9,834.6,1317z M781.7,1243.2
		c0,12.6,2.8,30.3,18.1,30.3c15.5,0,18.3-17.7,18.3-30.3c0-12.6-2.8-30.5-18.3-30.5C784.5,1212.8,781.7,1230.7,781.7,1243.2z"/>
	<path class="st40" d="M996.2,1288.3c-1.8,5.7-6.1,12.7-16.4,12.7c-9.8,0-15.9-5-15.9-17.9v-2.8c-2.6,10.7-10.9,20.7-24.8,20.7
		c-14.6,0-30.5-4.6-30.5-22c0-18.8,18.3-22.9,34.2-25.5c6.5-0.9,15.3-1.8,21.1-2.6v-1.1c0-18.8,1.3-37.1-17.7-37.1
		c-10.7,0-17.7,3.9-17.7,11.1c0,3.3,1.3,4.8,1.3,9.1c0,4.6-2.6,7.4-7,7.4c-4.2,0-7-3.5-7-7.9c0-12.7,16.1-20.3,30.5-20.3
		c23.8,0,33.6,12.4,33.6,35.1v35.8c0,8.3-0.6,15.3,5.5,15.3c5,0,8.5-5.2,10.2-10.3L996.2,1288.3z M963.9,1272.4v-20.5
		c-5.4,0.7-13.7,1.5-20.3,2.6c-16.1,3-18.1,16.6-18.1,24.4c0,11.8,4.8,21.1,15.3,21.1C954.7,1300,963.9,1286.8,963.9,1272.4z"/>
	<path class="st40" d="M1103,1298.3v0.9h-44.2v-0.9h14V1242c0-9.2-0.4-27.7-14.6-27.7c-17.2,0-24.8,25.1-24.8,39.4v44.7h14.2v0.9
		h-44.2v-0.9h14v-83.7h-14v-0.9h29.9v30.1c2.4-14.2,10.2-31.8,28.6-31.8c14.2,0,26.8,7,26.8,32.5v53.8H1103z"/>
	<path class="st40" d="M1210.9,1298.3v0.9h-30.1v-15c-4.1,10-14,16.8-26.2,16.8c-25.9,0-40.5-20.9-40.5-44.5s14.6-44.5,40.5-44.5
		c12.2,0,22.2,6.8,26.2,16.6v-57.8h-14v-0.9h29.9v128.4H1210.9z M1181.7,1273.9V1239c0-14.6-11.8-25.7-25.5-25.7
		c-22,0-25.1,25.3-25.1,43.2c0,17.9,3.1,43.2,25.1,43.2C1169.9,1299.8,1181.7,1289.1,1181.7,1273.9z"/>
	<path class="st40" d="M1345.6,1275.2c0,14.6-12.4,25.9-33.3,25.9c-10.2,0-20.3-6.8-26-6.8c-3.5,0-4.6,3.1-5.4,5.9h-0.7v-30.9h0.7
		c3.5,13.9,13.7,30.9,31.4,30.9c13.5,0,21.2-6.3,21.2-17.6c0-11.5-13.1-13.7-27.9-20.1c-18.3-8.3-23.1-15.5-23.1-27.5
		c0-13.3,11.3-22.9,27.9-22.9c10.7,0,16.4,5.9,21.2,5.9c3.1,0,3.9-2.2,4.8-4.3h0.7v24.6h-0.7c-3.5-14-12.7-25.5-26.1-25.5
		c-12.7,0-17.7,7.8-17.7,15.2c0,7.8,3.1,11.6,20.9,18.5C1340.1,1256.7,1345.6,1263.9,1345.6,1275.2z"/>
	<path class="st40" d="M1406.4,1290.2c-1.8,2.8-6.7,10.9-17,10.9c-13.1,0-21.2-5.4-21.2-20.3v-66.1h-13.3v-0.9h13.3l14-22.7h1.8
		v22.7h21.6v0.9H1384v66.1c0,6.8-0.6,17.9,8.9,17.9c6.3,0,10.5-5.5,12.6-9.1L1406.4,1290.2z"/>
	<path class="st40" d="M1506,1288.3c-1.8,5.7-6.1,12.7-16.4,12.7c-9.8,0-15.9-5-15.9-17.9v-2.8c-2.6,10.7-10.9,20.7-24.8,20.7
		c-14.6,0-30.5-4.6-30.5-22c0-18.8,18.3-22.9,34.2-25.5c6.5-0.9,15.3-1.8,21.1-2.6v-1.1c0-18.8,1.3-37.1-17.7-37.1
		c-10.7,0-17.7,3.9-17.7,11.1c0,3.3,1.3,4.8,1.3,9.1c0,4.6-2.6,7.4-7,7.4c-4.2,0-7-3.5-7-7.9c0-12.7,16.1-20.3,30.5-20.3
		c23.8,0,33.6,12.4,33.6,35.1v35.8c0,8.3-0.6,15.3,5.5,15.3c5,0,8.5-5.2,10.2-10.3L1506,1288.3z M1473.6,1272.4v-20.5
		c-5.4,0.7-13.7,1.5-20.3,2.6c-16.1,3-18.1,16.6-18.1,24.4c0,11.8,4.8,21.1,15.3,21.1C1464.4,1300,1473.6,1286.8,1473.6,1272.4z"/>
	<path class="st40" d="M1562.1,1290.2c-1.8,2.8-6.7,10.9-17,10.9c-13.1,0-21.2-5.4-21.2-20.3v-66.1h-13.3v-0.9h13.3l14-22.7h1.8
		v22.7h21.6v0.9h-21.6v66.1c0,6.8-0.6,17.9,8.9,17.9c6.3,0,10.5-5.5,12.6-9.1L1562.1,1290.2z"/>
	<path class="st40" d="M1652.1,1251.2h-61c0,1.8,0,3.7,0,5.4c0,17.9,5.7,43.6,27.7,43.6c15.7,0,26.1-9.4,29.7-18.7l1.1,0.6
		c-3.9,9.2-13.5,19-30.9,19c-25.9,0-44.7-18.5-44.7-44.5c0-26.1,17.7-44.5,41.2-44.5C1634,1212,1652.8,1225.3,1652.1,1251.2z
		 M1635.1,1250.3c-0.2-18.3-5.2-37.5-19.8-37.5c-17.6,0-23.1,20.5-24,37.5H1635.1z"/>
	<path class="st40" d="M1735.6,1222.7c0,4.1-1.8,7.6-6.5,7.6c-10.3,0-2.6-14.8-14.2-14.8c-12.4,0-20.7,25.7-20.7,43.2v39.5h14.2v0.9
		h-44.2v-0.9h14v-83.7h-14v-0.9h29.2v40.6c1.3-17.6,8.3-42.3,27.5-42.3C1730.1,1212,1735.6,1216.6,1735.6,1222.7z"/>
	<path class="st40" d="M1825.4,1309.2c0,21.8-22.5,36-44.9,36c-22.2,0-38.4-9.8-38.4-22.7c0-11.6,12.9-18.3,23.1-20
		c-13.1-2-18.5-7-18.5-14.6c0-11.6,13.3-15.5,19.8-16.8c-10.9-4.8-18.8-14.8-18.8-27.9c0-19.2,16.6-31.2,34.5-31.2
		c6.1,0,12,1.3,17.2,3.9c2-8.5,8.1-16.3,17.6-16.3c4.4,0,7.8,2,7.8,5.9c0,2.8-2,5-5.2,5c-5,0-5.7-3.7-10.3-3.7
		c-3.9,0-7.6,3.5-8.9,9.4c9.8,5.2,16.6,14.6,16.6,27c0,19-16.6,31-34.7,31c-5,0-10.2-0.9-14.6-2.8c-5.4,0.9-16.4,4.2-16.4,10.7
		c0,6.5,9.6,5.7,34.5,5.7C1812.5,1288,1825.4,1292.8,1825.4,1309.2z M1816.9,1317c0-15.1-17.7-13.5-35.5-13.5
		c-5.2,0-9.8-0.2-13.7-0.7c-5.9,0.9-15.1,4.8-15.1,18.5c0,14,10.2,23.1,28.1,23.1C1798.2,1344.3,1816.9,1334.9,1816.9,1317z
		 M1764.1,1243.2c0,12.6,2.8,30.3,18.1,30.3c15.5,0,18.3-17.7,18.3-30.3c0-12.6-2.8-30.5-18.3-30.5
		C1766.8,1212.8,1764.1,1230.7,1764.1,1243.2z"/>
	<path class="st40" d="M1928.1,1214.6h-14l-32.7,85.9c-10.7,27.2-18.5,39.7-33.8,39.7c-7.9,0-15-3.9-15-11.1c0-3.3,2-6.7,6.1-6.7
		c10.5,0,2.6,15.3,12.7,15.3c10.9,0,18.8-11.3,29-37.3h-0.9l-35.7-85.9h-12.9v-0.9h44.2v0.9h-14.2l27.5,64.8l24.8-64.8h-15v-0.9
		h29.9V1214.6z"/>
</g>
<text transform="matrix(1 0 0 1 218.4277 1461.0195)"><tspan x="0" y="0" class="st7 st41 st42">We plane your business solution </tspan><tspan x="0" y="105.4" class="st7 st41 st42">and fnd best solution for it</tspan></text>
</svg>
